<?xml version="1.0" encoding="UTF-8"?>
<svg id="Camada_1" data-name="Camada 1" xmlns="http://www.w3.org/2000/svg" xmlns:xlink="http://www.w3.org/1999/xlink" viewBox="0 0 727.25 293.32">
  <defs>
    <style>
      .cls-1 {
        fill: url(#Gradiente_sem_nome_253);
      }

      .cls-2 {
        fill: url(#Gradiente_sem_nome_207);
      }
    </style>
    <linearGradient id="Gradiente_sem_nome_207" data-name="Gradiente sem nome 207" x1="105.11" y1="182.24" x2="43.75" y2="75.95" gradientUnits="userSpaceOnUse">
      <stop offset="0" stop-color="#5a0300"/>
      <stop offset=".03" stop-color="#610200"/>
      <stop offset=".25" stop-color="#8a0100"/>
      <stop offset=".45" stop-color="#aa0100"/>
      <stop offset=".65" stop-color="#c10000"/>
      <stop offset=".84" stop-color="#cf0000"/>
      <stop offset="1" stop-color="#d40000"/>
    </linearGradient>
    <linearGradient id="Gradiente_sem_nome_253" data-name="Gradiente sem nome 253" x1="123.04" y1="155.95" x2="52.83" y2="277.56" gradientUnits="userSpaceOnUse">
      <stop offset="0" stop-color="#00006f"/>
      <stop offset=".12" stop-color="#00048c"/>
      <stop offset=".31" stop-color="#000bb5"/>
      <stop offset=".5" stop-color="#0010d5"/>
      <stop offset=".68" stop-color="#0014ec"/>
      <stop offset=".85" stop-color="#0016fa"/>
      <stop offset="1" stop-color="#0017ff"/>
    </linearGradient>
  </defs>
  <path class="cls-2" d="M87.73,190.35h-35.51c-4.12,0-7.94-2.01-10.49-5.51-2.85-3.93-3.64-9.1-2.1-13.82l35.51-108.79c2.53-7.75,9.11-10.35,14.5-9.49,5.51.88,11.44,5.74,11.44,14.34v108.79c0,7.99-5.99,14.49-13.35,14.49ZM87.62,58.93c-2.44,0-5.16,1.36-6.43,5.27l-35.51,108.79c-.91,2.79-.46,5.82,1.2,8.11.78,1.08,2.52,2.89,5.34,2.89h35.51c3.86,0,7-3.65,7-8.13v-108.79c0-4.9-3.05-7.58-6.08-8.06-.33-.05-.68-.08-1.03-.08Z"/>
  <path class="cls-1" d="M129.47,161.06c-2.54-3.5-6.36-5.51-10.49-5.51h-17.9v6.35h17.9c2.82,0,4.56,1.81,5.34,2.89,1.66,2.29,2.11,5.32,1.2,8.11l-35.51,108.79c-1.46,4.47-4.82,5.61-7.46,5.19-3.03-.48-6.08-3.16-6.08-8.06v-108.79c0-4.48,3.14-8.13,7-8.13h11.25v-6.35h-11.25c-7.36,0-13.35,6.5-13.35,14.49v108.79c0,8.6,5.93,13.46,11.44,14.34.65.1,1.32.16,1.99.16,4.93,0,10.29-2.83,12.51-9.65l35.51-108.79c1.54-4.72.76-9.88-2.1-13.82Z"/>
  <g>
    <path d="M243.2,143.42c0-1.79-.46-3.33-1.38-4.6-.92-1.27-2.3-2.37-4.14-3.29s-4.15-1.7-6.93-2.33c-2.78-.64-6.04-1.21-9.77-1.73l-17.12-2.83c-7.12-1.08-13.13-2.61-18.01-4.56-4.88-1.96-8.83-4.28-11.85-6.97-3.02-2.69-5.19-5.7-6.51-9.02-1.32-3.33-1.98-6.95-1.98-10.86,0-5.14,1.13-9.59,3.4-13.34,2.26-3.75,5.47-6.85,9.62-9.31,4.15-2.45,9.15-4.26,15-5.41,5.85-1.16,12.36-1.73,19.53-1.73,5.09,0,9.92.27,14.47.81,4.55.54,8.9,1.36,13.06,2.44,4.15,1.09,8.15,2.43,11.99,4.03,3.84,1.6,7.63,3.44,11.36,5.52l-8.14,16.56c-3.59-2.12-7.29-3.83-11.11-5.13-3.82-1.3-7.58-2.3-11.29-3.01-3.7-.71-7.23-1.18-10.58-1.42-3.35-.24-6.37-.35-9.06-.35-3.35,0-6.4.17-9.16.5-2.76.33-5.13.91-7.11,1.73-1.98.83-3.51,1.92-4.6,3.29-1.09,1.37-1.63,3.09-1.63,5.17s.45,3.59,1.34,4.81c.9,1.23,2.11,2.23,3.64,3.01,1.53.78,3.31,1.38,5.34,1.8,2.03.42,4.17.8,6.44,1.13l24.77,4.46c6.42.99,11.98,2.25,16.7,3.79,4.72,1.53,8.62,3.47,11.71,5.8,3.09,2.34,5.38,5.13,6.86,8.39,1.49,3.25,2.23,7.08,2.23,11.46,0,3.96-.61,7.52-1.84,10.69-1.23,3.16-2.94,5.94-5.13,8.35-2.19,2.41-4.81,4.47-7.85,6.19-3.04,1.72-6.4,3.13-10.08,4.21-3.68,1.08-7.62,1.89-11.82,2.41-4.2.52-8.52.78-12.95.78-6.46,0-12.64-.58-18.54-1.73-5.9-1.16-11.37-2.59-16.42-4.32-5.05-1.72-9.59-3.58-13.62-5.59-4.03-2-7.4-3.86-10.08-5.56l10.61-17.27c2.69,1.75,5.86,3.47,9.52,5.17,3.66,1.7,7.54,3.21,11.64,4.53,4.1,1.32,8.31,2.4,12.63,3.22,4.32.83,8.48,1.24,12.49,1.24,8.26,0,14.38-.94,18.36-2.83,3.99-1.89,5.98-4.65,5.98-8.28Z"/>
    <path d="M275.41,171.8v-101.33h55.62c4.39,0,8.7.17,12.95.5,4.25.33,8.25.96,12.03,1.88,3.77.92,7.25,2.17,10.44,3.75,3.18,1.58,5.93,3.61,8.24,6.09,2.31,2.48,4.12,5.46,5.41,8.95,1.3,3.49,1.95,7.6,1.95,12.31,0,6.32-1.1,11.72-3.29,16.2-2.19,4.48-5.26,8.16-9.2,11.04-3.94,2.88-8.66,4.99-14.15,6.33-5.5,1.34-11.55,2.02-18.15,2.02h-35.67v32.27h-26.18ZM334.5,120.21c2.83,0,5.45-.29,7.85-.88,2.41-.59,4.48-1.52,6.23-2.8,1.74-1.27,3.1-2.91,4.07-4.92.97-2,1.45-4.45,1.45-7.32s-.48-5.18-1.45-7.04c-.97-1.86-2.32-3.34-4.07-4.42-1.75-1.08-3.83-1.85-6.26-2.3-2.43-.45-5.08-.67-7.96-.67h-32.76v30.36h32.91Z"/>
    <path d="M387.51,171.8v-101.33h98.72v19.81h-72.11v21.02h62.13v18.4h-62.13v22.22h73.88v19.88h-100.48Z"/>
    <path d="M496.5,171.8v-101.33h98.72v19.81h-72.11v21.02h62.13v18.4h-62.13v22.22h73.88v19.88h-100.48Z"/>
    <path d="M605.49,171.8v-101.33h53c9.81,0,18.88,1.03,27.21,3.08,8.33,2.05,15.52,5.14,21.58,9.27,6.06,4.13,10.8,9.32,14.22,15.57,3.42,6.25,5.13,13.55,5.13,21.9,0,6.32-.81,11.99-2.44,17.02-1.63,5.02-3.93,9.45-6.9,13.27-2.97,3.82-6.57,7.08-10.79,9.77-4.22,2.69-8.93,4.88-14.12,6.58-5.19,1.7-10.79,2.94-16.81,3.72s-12.33,1.17-18.93,1.17h-51.16ZM659.69,151.91c6.04,0,11.47-.62,16.31-1.88,4.83-1.25,8.94-3.15,12.31-5.7,3.37-2.55,5.97-5.73,7.78-9.55,1.82-3.82,2.72-8.28,2.72-13.37s-.87-9.65-2.62-13.52c-1.75-3.87-4.25-7.1-7.5-9.69-3.26-2.59-7.22-4.55-11.89-5.87-4.67-1.32-9.93-1.98-15.78-1.98h-29.23v61.56h27.88Z"/>
  </g>
  <g>
    <path d="M202.21,222.31c0-1.24-.26-2.31-.78-3.2-.52-.89-1.32-1.65-2.39-2.29-1.07-.63-2.43-1.16-4.08-1.58-1.65-.42-3.62-.8-5.9-1.14l-7.93-1.32c-3.32-.52-6.11-1.2-8.35-2.03-2.25-.84-4.05-1.83-5.41-2.98-1.36-1.15-2.32-2.47-2.9-3.95s-.86-3.12-.86-4.93c0-2.49.54-4.59,1.63-6.32,1.08-1.73,2.58-3.13,4.47-4.2,1.9-1.07,4.13-1.85,6.69-2.34,2.56-.49,5.31-.73,8.25-.73,4.29,0,8.28.47,11.96,1.42,3.68.95,7.2,2.44,10.54,4.47l-2.64,5.12c-1.72-1.11-3.47-1.99-5.27-2.66-1.8-.67-3.56-1.17-5.29-1.52s-3.37-.58-4.93-.68-2.96-.15-4.2-.15c-2.15,0-4.06.13-5.74.39-1.68.26-3.11.69-4.29,1.29-1.18.6-2.07,1.38-2.69,2.36-.62.97-.93,2.17-.93,3.59,0,1.51.33,2.72.98,3.63.65.9,1.51,1.62,2.56,2.14,1.05.52,2.23.9,3.54,1.15,1.31.25,2.62.47,3.93.68l10.71,1.93c2.91.45,5.46,1.02,7.63,1.71,2.17.69,3.96,1.56,5.39,2.61,1.42,1.05,2.49,2.32,3.19,3.81.7,1.49,1.05,3.28,1.05,5.35,0,1.85-.28,3.5-.85,4.93-.56,1.44-1.36,2.7-2.37,3.8-1.02,1.1-2.23,2.02-3.63,2.78-1.4.76-2.94,1.37-4.61,1.83s-3.46.8-5.35,1.02-3.84.32-5.83.32c-2.82,0-5.51-.25-8.07-.76-2.55-.51-4.92-1.15-7.1-1.92-2.18-.77-4.14-1.62-5.88-2.54-1.74-.93-3.2-1.8-4.37-2.61l3.52-5.19c1.29.93,2.77,1.8,4.44,2.63,1.67.83,3.44,1.55,5.32,2.17,1.88.62,3.81,1.11,5.81,1.47s3.97.54,5.91.54c5.17,0,8.99-.67,11.44-2,2.45-1.33,3.68-3.37,3.68-6.1Z"/>
    <path d="M282.48,235.22v-17.56l-22.94-30.98h8.91l18.03,25.79,18.06-25.79h8.71l-22.94,30.98v17.56h-7.83Z"/>
    <path d="M400.27,222.31c0-1.24-.26-2.31-.78-3.2-.52-.89-1.32-1.65-2.39-2.29-1.07-.63-2.44-1.16-4.08-1.58-1.65-.42-3.62-.8-5.9-1.14l-7.93-1.32c-3.32-.52-6.11-1.2-8.35-2.03-2.25-.84-4.05-1.83-5.41-2.98-1.36-1.15-2.32-2.47-2.9-3.95s-.86-3.12-.86-4.93c0-2.49.54-4.59,1.63-6.32,1.08-1.73,2.58-3.13,4.47-4.2,1.9-1.07,4.13-1.85,6.69-2.34,2.56-.49,5.31-.73,8.25-.73,4.29,0,8.28.47,11.96,1.42,3.68.95,7.2,2.44,10.54,4.47l-2.64,5.12c-1.72-1.11-3.47-1.99-5.27-2.66-1.8-.67-3.56-1.17-5.29-1.52s-3.37-.58-4.93-.68-2.96-.15-4.2-.15c-2.15,0-4.06.13-5.74.39-1.68.26-3.11.69-4.29,1.29-1.18.6-2.07,1.38-2.69,2.36-.62.97-.93,2.17-.93,3.59,0,1.51.33,2.72.98,3.63.65.9,1.51,1.62,2.56,2.14,1.05.52,2.23.9,3.54,1.15,1.31.25,2.62.47,3.93.68l10.71,1.93c2.91.45,5.46,1.02,7.62,1.71,2.17.69,3.97,1.56,5.39,2.61,1.42,1.05,2.49,2.32,3.19,3.81s1.05,3.28,1.05,5.35c0,1.85-.28,3.5-.85,4.93-.57,1.44-1.36,2.7-2.37,3.8-1.02,1.1-2.23,2.02-3.63,2.78-1.4.76-2.94,1.37-4.61,1.83s-3.46.8-5.35,1.02c-1.9.21-3.84.32-5.83.32-2.82,0-5.51-.25-8.07-.76-2.55-.51-4.92-1.15-7.1-1.92-2.18-.77-4.14-1.62-5.88-2.54-1.74-.93-3.2-1.8-4.37-2.61l3.52-5.19c1.29.93,2.77,1.8,4.44,2.63,1.67.83,3.44,1.55,5.32,2.17,1.88.62,3.81,1.11,5.81,1.47s3.97.54,5.91.54c5.17,0,8.99-.67,11.44-2,2.45-1.33,3.68-3.37,3.68-6.1Z"/>
    <path d="M479.4,235.22v-42.36h-21.38v-6.17h50.4v6.17h-21.32v42.36h-7.69Z"/>
    <path d="M563.4,235.22v-48.53h43.11v6.03h-35.38v14.98h30.26v5.73h-30.26v15.73h35.92v6.07h-43.65Z"/>
    <path d="M720.03,235.22v-35.48l.14-5.8-2.41,5.8-18.33,35.48h-6.88l-18.3-35.45-2.51-6.07.2,6.07v35.45h-6.81v-48.53h10.03l18.88,37.25,2.2,5.79,2.13-5.79,18.88-37.25h10v48.53h-7.22Z"/>
  </g>
  <g>
    <path d="M173.75,264.45v1.84h-11.9v-14.8h11.57v1.84h-9.23v4.55h8.22v1.8h-8.22v4.78h9.56Z"/>
    <path d="M181.28,258.89c0-4.38,3.7-7.57,8.69-7.57,2.53,0,4.73.78,6.23,2.31l-1.52,1.33c-1.27-1.21-2.81-1.75-4.61-1.75-3.7,0-6.44,2.41-6.44,5.69s2.74,5.69,6.44,5.69c1.8,0,3.35-.57,4.61-1.78l1.52,1.33c-1.5,1.52-3.7,2.33-6.25,2.33-4.97,0-8.67-3.19-8.67-7.57Z"/>
    <path d="M203.02,258.89c0-4.33,3.7-7.57,8.74-7.57s8.69,3.21,8.69,7.57-3.7,7.57-8.69,7.57-8.74-3.24-8.74-7.57ZM218.1,258.89c0-3.28-2.72-5.69-6.35-5.69s-6.39,2.41-6.39,5.69,2.72,5.69,6.39,5.69,6.35-2.41,6.35-5.69Z"/>
    <path d="M227.68,264.6l.87-1.65c1.22.99,3.3,1.71,5.41,1.71,2.83,0,4.05-.99,4.05-2.28,0-3.62-9.93-1.33-9.93-6.83,0-2.28,1.97-4.23,6.28-4.23,1.92,0,3.91.47,5.27,1.31l-.77,1.69c-1.43-.83-3.04-1.21-4.5-1.21-2.79,0-3.98,1.06-3.98,2.35,0,3.62,9.93,1.35,9.93,6.79,0,2.26-2.01,4.21-6.35,4.21-2.51,0-4.97-.76-6.28-1.86Z"/>
    <path d="M247.37,264.6l.87-1.65c1.22.99,3.3,1.71,5.41,1.71,2.83,0,4.05-.99,4.05-2.28,0-3.62-9.93-1.33-9.93-6.83,0-2.28,1.97-4.23,6.28-4.23,1.92,0,3.91.47,5.27,1.31l-.77,1.69c-1.43-.83-3.04-1.21-4.5-1.21-2.79,0-3.98,1.06-3.98,2.35,0,3.62,9.93,1.35,9.93,6.79,0,2.26-2.01,4.21-6.35,4.21-2.51,0-4.97-.76-6.28-1.86Z"/>
    <path d="M268.56,251.49h2.34v14.8h-2.34v-14.8Z"/>
    <path d="M279.48,264.6l.87-1.65c1.22.99,3.3,1.71,5.41,1.71,2.83,0,4.05-.99,4.05-2.28,0-3.62-9.93-1.33-9.93-6.83,0-2.28,1.97-4.23,6.28-4.23,1.92,0,3.91.47,5.27,1.31l-.77,1.69c-1.43-.83-3.04-1.21-4.5-1.21-2.79,0-3.98,1.06-3.98,2.35,0,3.62,9.93,1.35,9.93,6.79,0,2.26-2.01,4.21-6.35,4.21-2.51,0-4.97-.76-6.28-1.86Z"/>
    <path d="M303.69,253.33h-5.62v-1.84h13.56v1.84h-5.62v12.96h-2.32v-12.96Z"/>
    <path d="M331.23,264.45v1.84h-11.9v-14.8h11.57v1.84h-9.23v4.55h8.22v1.8h-8.22v4.78h9.56Z"/>
    <path d="M355.38,266.29l-.02-10.79-5.93,8.99h-1.08l-5.93-8.92v10.72h-2.25v-14.8h1.92l6.84,10.4,6.75-10.4h1.92l.02,14.8h-2.25Z"/>
    <path d="M378.14,262.59h-8.71l-1.8,3.7h-2.41l7.42-14.8h2.32l7.45,14.8h-2.46l-1.8-3.7ZM377.32,260.9l-3.54-7.25-3.54,7.25h7.07Z"/>
    <path d="M401.44,251.49h6.91c5.27,0,8.85,3,8.85,7.4s-3.58,7.4-8.85,7.4h-6.91v-14.8ZM408.21,264.45c4.05,0,6.65-2.24,6.65-5.56s-2.6-5.56-6.65-5.56h-4.43v11.12h4.43Z"/>
    <path d="M437.83,264.45v1.84h-11.9v-14.8h11.57v1.84h-9.23v4.55h8.22v1.8h-8.22v4.78h9.56Z"/>
    <path d="M456.73,264.6l.87-1.65c1.22.99,3.3,1.71,5.41,1.71,2.83,0,4.05-.99,4.05-2.28,0-3.62-9.93-1.33-9.93-6.83,0-2.28,1.97-4.23,6.28-4.23,1.92,0,3.91.47,5.27,1.31l-.77,1.69c-1.43-.83-3.04-1.21-4.5-1.21-2.79,0-3.98,1.06-3.98,2.35,0,3.62,9.93,1.35,9.93,6.79,0,2.26-2.01,4.21-6.35,4.21-2.51,0-4.97-.76-6.28-1.86Z"/>
    <path d="M476.59,258.89c0-4.33,3.7-7.57,8.74-7.57s8.69,3.21,8.69,7.57-3.7,7.57-8.69,7.57-8.74-3.24-8.74-7.57ZM491.67,258.89c0-3.28-2.72-5.69-6.35-5.69s-6.39,2.41-6.39,5.69,2.72,5.69,6.39,5.69,6.35-2.41,6.35-5.69Z"/>
    <path d="M502.75,251.49h2.34v12.96h8.88v1.84h-11.22v-14.8Z"/>
    <path d="M521.39,259.91v-8.42h2.34v8.33c0,3.28,1.66,4.76,4.61,4.76s4.64-1.48,4.64-4.76v-8.33h2.27v8.42c0,4.29-2.6,6.56-6.93,6.56s-6.93-2.26-6.93-6.56Z"/>
    <path d="M557.27,262.8l1.52,1.33c-1.48,1.48-3.61,2.28-6.09,2.33l-.26.89c1.36.13,2.04.82,2.04,1.75,0,1.18-1.15,1.92-2.9,1.92-.82,0-1.5-.15-2.08-.46l.49-1.04c.49.25,1.01.36,1.59.36.89,0,1.31-.32,1.31-.85,0-.49-.4-.82-1.33-.82h-.63l.51-1.82c-4.4-.42-7.57-3.47-7.57-7.51,0-4.38,3.7-7.57,8.69-7.57,2.53,0,4.73.78,6.23,2.31l-1.52,1.33c-1.26-1.21-2.81-1.75-4.61-1.75-3.7,0-6.44,2.41-6.44,5.69s2.74,5.69,6.44,5.69c1.8,0,3.35-.57,4.61-1.78Z"/>
    <path d="M565.6,258.89c0-4.33,3.7-7.57,8.74-7.57s8.69,3.21,8.69,7.57-3.7,7.57-8.69,7.57-8.74-3.24-8.74-7.57ZM580.69,258.89c0-3.28-2.72-5.69-6.35-5.69s-6.39,2.41-6.39,5.69,2.72,5.69,6.39,5.69,6.35-2.41,6.35-5.69ZM572.86,248.8c-.68,0-1.15.49-1.19,1.31h-1.26c.05-1.57.94-2.58,2.3-2.58,1.5,0,2.25,1.44,3.11,1.44.68,0,1.15-.49,1.2-1.27h1.26c-.05,1.5-.94,2.52-2.3,2.52-1.5,0-2.25-1.42-3.12-1.42Z"/>
    <path d="M603.66,264.45v1.84h-11.9v-14.8h11.57v1.84h-9.23v4.55h8.22v1.8h-8.22v4.78h9.56Z"/>
    <path d="M611.11,264.6l.87-1.65c1.22.99,3.3,1.71,5.41,1.71,2.83,0,4.05-.99,4.05-2.28,0-3.62-9.93-1.33-9.93-6.83,0-2.28,1.97-4.23,6.28-4.23,1.92,0,3.91.47,5.27,1.31l-.77,1.69c-1.43-.83-3.04-1.21-4.5-1.21-2.79,0-3.98,1.06-3.98,2.35,0,3.62,9.93,1.35,9.93,6.79,0,2.26-2.01,4.21-6.35,4.21-2.51,0-4.97-.76-6.28-1.86Z"/>
    <path d="M655.65,264.45v1.84h-11.9v-14.8h11.57v1.84h-9.23v4.55h8.22v1.8h-8.22v4.78h9.56Z"/>
    <path d="M679.79,266.29l-.02-10.79-5.93,8.99h-1.08l-5.93-8.92v10.72h-2.25v-14.8h1.92l6.84,10.4,6.75-10.4h1.92l.02,14.8h-2.25Z"/>
    <path d="M706.82,253.33h-5.62v-1.84h13.56v1.84h-5.62v12.96h-2.32v-12.96Z"/>
    <path d="M722.46,251.49h2.34v14.8h-2.34v-14.8Z"/>
  </g>
</svg>