<?xml version="1.0" encoding="UTF-8" standalone="no"?>
<svg
   id="Camada_1"
   data-name="Camada 1"
   viewBox="0 0 727.25 293.32"
   version="1.1"
   sodipodi:docname="Speed System VECTOR BRANCO.svg"
   inkscape:version="1.2.2 (b0a8486541, 2022-12-01)"
   xmlns:inkscape="http://www.inkscape.org/namespaces/inkscape"
   xmlns:sodipodi="http://sodipodi.sourceforge.net/DTD/sodipodi-0.dtd"
   xmlns="http://www.w3.org/2000/svg"
   xmlns:svg="http://www.w3.org/2000/svg">
  <sodipodi:namedview
     id="namedview286"
     pagecolor="#505050"
     bordercolor="#eeeeee"
     borderopacity="1"
     inkscape:showpageshadow="0"
     inkscape:pageopacity="0"
     inkscape:pagecheckerboard="0"
     inkscape:deskcolor="#505050"
     showgrid="false"
     inkscape:zoom="1.3431308"
     inkscape:cx="322.38111"
     inkscape:cy="160.44603"
     inkscape:window-width="1634"
     inkscape:window-height="773"
     inkscape:window-x="50"
     inkscape:window-y="89"
     inkscape:window-maximized="0"
     inkscape:current-layer="Camada_1" />
  <defs
     id="defs201">
    <style
       id="style169">
      .cls-1 {
        fill: url(#Gradiente_sem_nome_253);
      }

      .cls-2 {
        fill: url(#Gradiente_sem_nome_207);
      }
    </style>
    <linearGradient
       id="Gradiente_sem_nome_207"
       data-name="Gradiente sem nome 207"
       x1="105.11"
       y1="182.24"
       x2="43.75"
       y2="75.95"
       gradientUnits="userSpaceOnUse">
      <stop
         offset="0"
         stop-color="#5a0300"
         id="stop171" />
      <stop
         offset=".03"
         stop-color="#610200"
         id="stop173" />
      <stop
         offset=".25"
         stop-color="#8a0100"
         id="stop175" />
      <stop
         offset=".45"
         stop-color="#aa0100"
         id="stop177" />
      <stop
         offset=".65"
         stop-color="#c10000"
         id="stop179" />
      <stop
         offset=".84"
         stop-color="#cf0000"
         id="stop181" />
      <stop
         offset="1"
         stop-color="#d40000"
         id="stop183" />
    </linearGradient>
    <linearGradient
       id="Gradiente_sem_nome_253"
       data-name="Gradiente sem nome 253"
       x1="123.04"
       y1="155.95"
       x2="52.83"
       y2="277.56"
       gradientUnits="userSpaceOnUse">
      <stop
         offset="0"
         stop-color="#00006f"
         id="stop186" />
      <stop
         offset=".12"
         stop-color="#00048c"
         id="stop188" />
      <stop
         offset=".31"
         stop-color="#000bb5"
         id="stop190" />
      <stop
         offset=".5"
         stop-color="#0010d5"
         id="stop192" />
      <stop
         offset=".68"
         stop-color="#0014ec"
         id="stop194" />
      <stop
         offset=".85"
         stop-color="#0016fa"
         id="stop196" />
      <stop
         offset="1"
         stop-color="#0017ff"
         id="stop198" />
    </linearGradient>
  </defs>
  <path
     class="cls-2"
     d="M87.73,190.35h-35.51c-4.12,0-7.94-2.01-10.49-5.51-2.85-3.93-3.64-9.1-2.1-13.82l35.51-108.79c2.53-7.75,9.11-10.35,14.5-9.49,5.51.88,11.44,5.74,11.44,14.34v108.79c0,7.99-5.99,14.49-13.35,14.49ZM87.62,58.93c-2.44,0-5.16,1.36-6.43,5.27l-35.51,108.79c-.91,2.79-.46,5.82,1.2,8.11.78,1.08,2.52,2.89,5.34,2.89h35.51c3.86,0,7-3.65,7-8.13v-108.79c0-4.9-3.05-7.58-6.08-8.06-.33-.05-.68-.08-1.03-.08Z"
     id="path203" />
  <path
     class="cls-1"
     d="M129.47,161.06c-2.54-3.5-6.36-5.51-10.49-5.51h-17.9v6.35h17.9c2.82,0,4.56,1.81,5.34,2.89,1.66,2.29,2.11,5.32,1.2,8.11l-35.51,108.79c-1.46,4.47-4.82,5.61-7.46,5.19-3.03-.48-6.08-3.16-6.08-8.06v-108.79c0-4.48,3.14-8.13,7-8.13h11.25v-6.35h-11.25c-7.36,0-13.35,6.5-13.35,14.49v108.79c0,8.6,5.93,13.46,11.44,14.34.65.1,1.32.16,1.99.16,4.93,0,10.29-2.83,12.51-9.65l35.51-108.79c1.54-4.72.76-9.88-2.1-13.82Z"
     id="path205" />
  <g
     id="g217">
    <path
       d="M243.2,143.42c0-1.79-.46-3.33-1.38-4.6-.92-1.27-2.3-2.37-4.14-3.29s-4.15-1.7-6.93-2.33c-2.78-.64-6.04-1.21-9.77-1.73l-17.12-2.83c-7.12-1.08-13.13-2.61-18.01-4.56-4.88-1.96-8.83-4.28-11.85-6.97-3.02-2.69-5.19-5.7-6.51-9.02-1.32-3.33-1.98-6.95-1.98-10.86,0-5.14,1.13-9.59,3.4-13.34,2.26-3.75,5.47-6.85,9.62-9.31,4.15-2.45,9.15-4.26,15-5.41,5.85-1.16,12.36-1.73,19.53-1.73,5.09,0,9.92.27,14.47.81,4.55.54,8.9,1.36,13.06,2.44,4.15,1.09,8.15,2.43,11.99,4.03,3.84,1.6,7.63,3.44,11.36,5.52l-8.14,16.56c-3.59-2.12-7.29-3.83-11.11-5.13-3.82-1.3-7.58-2.3-11.29-3.01-3.7-.71-7.23-1.18-10.58-1.42-3.35-.24-6.37-.35-9.06-.35-3.35,0-6.4.17-9.16.5-2.76.33-5.13.91-7.11,1.73-1.98.83-3.51,1.92-4.6,3.29-1.09,1.37-1.63,3.09-1.63,5.17s.45,3.59,1.34,4.81c.9,1.23,2.11,2.23,3.64,3.01,1.53.78,3.31,1.38,5.34,1.8,2.03.42,4.17.8,6.44,1.13l24.77,4.46c6.42.99,11.98,2.25,16.7,3.79,4.72,1.53,8.62,3.47,11.71,5.8,3.09,2.34,5.38,5.13,6.86,8.39,1.49,3.25,2.23,7.08,2.23,11.46,0,3.96-.61,7.52-1.84,10.69-1.23,3.16-2.94,5.94-5.13,8.35-2.19,2.41-4.81,4.47-7.85,6.19-3.04,1.72-6.4,3.13-10.08,4.21-3.68,1.08-7.62,1.89-11.82,2.41-4.2.52-8.52.78-12.95.78-6.46,0-12.64-.58-18.54-1.73-5.9-1.16-11.37-2.59-16.42-4.32-5.05-1.72-9.59-3.58-13.62-5.59-4.03-2-7.4-3.86-10.08-5.56l10.61-17.27c2.69,1.75,5.86,3.47,9.52,5.17,3.66,1.7,7.54,3.21,11.64,4.53,4.1,1.32,8.31,2.4,12.63,3.22,4.32.83,8.48,1.24,12.49,1.24,8.26,0,14.38-.94,18.36-2.83,3.99-1.89,5.98-4.65,5.98-8.28Z"
       id="path207" />
    <path
       d="M275.41,171.8v-101.33h55.62c4.39,0,8.7.17,12.95.5,4.25.33,8.25.96,12.03,1.88,3.77.92,7.25,2.17,10.44,3.75,3.18,1.58,5.93,3.61,8.24,6.09,2.31,2.48,4.12,5.46,5.41,8.95,1.3,3.49,1.95,7.6,1.95,12.31,0,6.32-1.1,11.72-3.29,16.2-2.19,4.48-5.26,8.16-9.2,11.04-3.94,2.88-8.66,4.99-14.15,6.33-5.5,1.34-11.55,2.02-18.15,2.02h-35.67v32.27h-26.18ZM334.5,120.21c2.83,0,5.45-.29,7.85-.88,2.41-.59,4.48-1.52,6.23-2.8,1.74-1.27,3.1-2.91,4.07-4.92.97-2,1.45-4.45,1.45-7.32s-.48-5.18-1.45-7.04c-.97-1.86-2.32-3.34-4.07-4.42-1.75-1.08-3.83-1.85-6.26-2.3-2.43-.45-5.08-.67-7.96-.67h-32.76v30.36h32.91Z"
       id="path209" />
    <path
       d="M387.51,171.8v-101.33h98.72v19.81h-72.11v21.02h62.13v18.4h-62.13v22.22h73.88v19.88h-100.48Z"
       id="path211" />
    <path
       d="M496.5,171.8v-101.33h98.72v19.81h-72.11v21.02h62.13v18.4h-62.13v22.22h73.88v19.88h-100.48Z"
       id="path213" />
    <path
       d="M605.49,171.8v-101.33h53c9.81,0,18.88,1.03,27.21,3.08,8.33,2.05,15.52,5.14,21.58,9.27,6.06,4.13,10.8,9.32,14.22,15.57,3.42,6.25,5.13,13.55,5.13,21.9,0,6.32-.81,11.99-2.44,17.02-1.63,5.02-3.93,9.45-6.9,13.27-2.97,3.82-6.57,7.08-10.79,9.77-4.22,2.69-8.93,4.88-14.12,6.58-5.19,1.7-10.79,2.94-16.81,3.72s-12.33,1.17-18.93,1.17h-51.16ZM659.69,151.91c6.04,0,11.47-.62,16.31-1.88,4.83-1.25,8.94-3.15,12.31-5.7,3.37-2.55,5.97-5.73,7.78-9.55,1.82-3.82,2.72-8.28,2.72-13.37s-.87-9.65-2.62-13.52c-1.75-3.87-4.25-7.1-7.5-9.69-3.26-2.59-7.22-4.55-11.89-5.87-4.67-1.32-9.93-1.98-15.78-1.98h-29.23v61.56h27.88Z"
       id="path215" />
  </g>
  <g
     id="g231">
    <path
       d="M202.21,222.31c0-1.24-.26-2.31-.78-3.2-.52-.89-1.32-1.65-2.39-2.29-1.07-.63-2.43-1.16-4.08-1.58-1.65-.42-3.62-.8-5.9-1.14l-7.93-1.32c-3.32-.52-6.11-1.2-8.35-2.03-2.25-.84-4.05-1.83-5.41-2.98-1.36-1.15-2.32-2.47-2.9-3.95s-.86-3.12-.86-4.93c0-2.49.54-4.59,1.63-6.32,1.08-1.73,2.58-3.13,4.47-4.2,1.9-1.07,4.13-1.85,6.69-2.34,2.56-.49,5.31-.73,8.25-.73,4.29,0,8.28.47,11.96,1.42,3.68.95,7.2,2.44,10.54,4.47l-2.64,5.12c-1.72-1.11-3.47-1.99-5.27-2.66-1.8-.67-3.56-1.17-5.29-1.52s-3.37-.58-4.93-.68-2.96-.15-4.2-.15c-2.15,0-4.06.13-5.74.39-1.68.26-3.11.69-4.29,1.29-1.18.6-2.07,1.38-2.69,2.36-.62.97-.93,2.17-.93,3.59,0,1.51.33,2.72.98,3.63.65.9,1.51,1.62,2.56,2.14,1.05.52,2.23.9,3.54,1.15,1.31.25,2.62.47,3.93.68l10.71,1.93c2.91.45,5.46,1.02,7.63,1.71,2.17.69,3.96,1.56,5.39,2.61,1.42,1.05,2.49,2.32,3.19,3.81.7,1.49,1.05,3.28,1.05,5.35,0,1.85-.28,3.5-.85,4.93-.56,1.44-1.36,2.7-2.37,3.8-1.02,1.1-2.23,2.02-3.63,2.78-1.4.76-2.94,1.37-4.61,1.83s-3.46.8-5.35,1.02-3.84.32-5.83.32c-2.82,0-5.51-.25-8.07-.76-2.55-.51-4.92-1.15-7.1-1.92-2.18-.77-4.14-1.62-5.88-2.54-1.74-.93-3.2-1.8-4.37-2.61l3.52-5.19c1.29.93,2.77,1.8,4.44,2.63,1.67.83,3.44,1.55,5.32,2.17,1.88.62,3.81,1.11,5.81,1.47s3.97.54,5.91.54c5.17,0,8.99-.67,11.44-2,2.45-1.33,3.68-3.37,3.68-6.1Z"
       id="path219" />
    <path
       d="M282.48,235.22v-17.56l-22.94-30.98h8.91l18.03,25.79,18.06-25.79h8.71l-22.94,30.98v17.56h-7.83Z"
       id="path221" />
    <path
       d="M400.27,222.31c0-1.24-.26-2.31-.78-3.2-.52-.89-1.32-1.65-2.39-2.29-1.07-.63-2.44-1.16-4.08-1.58-1.65-.42-3.62-.8-5.9-1.14l-7.93-1.32c-3.32-.52-6.11-1.2-8.35-2.03-2.25-.84-4.05-1.83-5.41-2.98-1.36-1.15-2.32-2.47-2.9-3.95s-.86-3.12-.86-4.93c0-2.49.54-4.59,1.63-6.32,1.08-1.73,2.58-3.13,4.47-4.2,1.9-1.07,4.13-1.85,6.69-2.34,2.56-.49,5.31-.73,8.25-.73,4.29,0,8.28.47,11.96,1.42,3.68.95,7.2,2.44,10.54,4.47l-2.64,5.12c-1.72-1.11-3.47-1.99-5.27-2.66-1.8-.67-3.56-1.17-5.29-1.52s-3.37-.58-4.93-.68-2.96-.15-4.2-.15c-2.15,0-4.06.13-5.74.39-1.68.26-3.11.69-4.29,1.29-1.18.6-2.07,1.38-2.69,2.36-.62.97-.93,2.17-.93,3.59,0,1.51.33,2.72.98,3.63.65.9,1.51,1.62,2.56,2.14,1.05.52,2.23.9,3.54,1.15,1.31.25,2.62.47,3.93.68l10.71,1.93c2.91.45,5.46,1.02,7.62,1.71,2.17.69,3.97,1.56,5.39,2.61,1.42,1.05,2.49,2.32,3.19,3.81s1.05,3.28,1.05,5.35c0,1.85-.28,3.5-.85,4.93-.57,1.44-1.36,2.7-2.37,3.8-1.02,1.1-2.23,2.02-3.63,2.78-1.4.76-2.94,1.37-4.61,1.83s-3.46.8-5.35,1.02c-1.9.21-3.84.32-5.83.32-2.82,0-5.51-.25-8.07-.76-2.55-.51-4.92-1.15-7.1-1.92-2.18-.77-4.14-1.62-5.88-2.54-1.74-.93-3.2-1.8-4.37-2.61l3.52-5.19c1.29.93,2.77,1.8,4.44,2.63,1.67.83,3.44,1.55,5.32,2.17,1.88.62,3.81,1.11,5.81,1.47s3.97.54,5.91.54c5.17,0,8.99-.67,11.44-2,2.45-1.33,3.68-3.37,3.68-6.1Z"
       id="path223" />
    <path
       d="M479.4,235.22v-42.36h-21.38v-6.17h50.4v6.17h-21.32v42.36h-7.69Z"
       id="path225" />
    <path
       d="M563.4,235.22v-48.53h43.11v6.03h-35.38v14.98h30.26v5.73h-30.26v15.73h35.92v6.07h-43.65Z"
       id="path227" />
    <path
       d="M720.03,235.22v-35.48l.14-5.8-2.41,5.8-18.33,35.48h-6.88l-18.3-35.45-2.51-6.07.2,6.07v35.45h-6.81v-48.53h10.03l18.88,37.25,2.2,5.79,2.13-5.79,18.88-37.25h10v48.53h-7.22Z"
       id="path229" />
  </g>
  <g
     id="g283">
    <path
       d="M173.75,264.45v1.84h-11.9v-14.8h11.57v1.84h-9.23v4.55h8.22v1.8h-8.22v4.78h9.56Z"
       id="path233" />
    <path
       d="M181.28,258.89c0-4.38,3.7-7.57,8.69-7.57,2.53,0,4.73.78,6.23,2.31l-1.52,1.33c-1.27-1.21-2.81-1.75-4.61-1.75-3.7,0-6.44,2.41-6.44,5.69s2.74,5.69,6.44,5.69c1.8,0,3.35-.57,4.61-1.78l1.52,1.33c-1.5,1.52-3.7,2.33-6.25,2.33-4.97,0-8.67-3.19-8.67-7.57Z"
       id="path235" />
    <path
       d="M203.02,258.89c0-4.33,3.7-7.57,8.74-7.57s8.69,3.21,8.69,7.57-3.7,7.57-8.69,7.57-8.74-3.24-8.74-7.57ZM218.1,258.89c0-3.28-2.72-5.69-6.35-5.69s-6.39,2.41-6.39,5.69,2.72,5.69,6.39,5.69,6.35-2.41,6.35-5.69Z"
       id="path237" />
    <path
       d="M227.68,264.6l.87-1.65c1.22.99,3.3,1.71,5.41,1.71,2.83,0,4.05-.99,4.05-2.28,0-3.62-9.93-1.33-9.93-6.83,0-2.28,1.97-4.23,6.28-4.23,1.92,0,3.91.47,5.27,1.31l-.77,1.69c-1.43-.83-3.04-1.21-4.5-1.21-2.79,0-3.98,1.06-3.98,2.35,0,3.62,9.93,1.35,9.93,6.79,0,2.26-2.01,4.21-6.35,4.21-2.51,0-4.97-.76-6.28-1.86Z"
       id="path239" />
    <path
       d="M247.37,264.6l.87-1.65c1.22.99,3.3,1.71,5.41,1.71,2.83,0,4.05-.99,4.05-2.28,0-3.62-9.93-1.33-9.93-6.83,0-2.28,1.97-4.23,6.28-4.23,1.92,0,3.91.47,5.27,1.31l-.77,1.69c-1.43-.83-3.04-1.21-4.5-1.21-2.79,0-3.98,1.06-3.98,2.35,0,3.62,9.93,1.35,9.93,6.79,0,2.26-2.01,4.21-6.35,4.21-2.51,0-4.97-.76-6.28-1.86Z"
       id="path241" />
    <path
       d="M268.56,251.49h2.34v14.8h-2.34v-14.8Z"
       id="path243" />
    <path
       d="M279.48,264.6l.87-1.65c1.22.99,3.3,1.71,5.41,1.71,2.83,0,4.05-.99,4.05-2.28,0-3.62-9.93-1.33-9.93-6.83,0-2.28,1.97-4.23,6.28-4.23,1.92,0,3.91.47,5.27,1.31l-.77,1.69c-1.43-.83-3.04-1.21-4.5-1.21-2.79,0-3.98,1.06-3.98,2.35,0,3.62,9.93,1.35,9.93,6.79,0,2.26-2.01,4.21-6.35,4.21-2.51,0-4.97-.76-6.28-1.86Z"
       id="path245" />
    <path
       d="M303.69,253.33h-5.62v-1.84h13.56v1.84h-5.62v12.96h-2.32v-12.96Z"
       id="path247" />
    <path
       d="M331.23,264.45v1.84h-11.9v-14.8h11.57v1.84h-9.23v4.55h8.22v1.8h-8.22v4.78h9.56Z"
       id="path249" />
    <path
       d="M355.38,266.29l-.02-10.79-5.93,8.99h-1.08l-5.93-8.92v10.72h-2.25v-14.8h1.92l6.84,10.4,6.75-10.4h1.92l.02,14.8h-2.25Z"
       id="path251" />
    <path
       d="M378.14,262.59h-8.71l-1.8,3.7h-2.41l7.42-14.8h2.32l7.45,14.8h-2.46l-1.8-3.7ZM377.32,260.9l-3.54-7.25-3.54,7.25h7.07Z"
       id="path253" />
    <path
       d="M401.44,251.49h6.91c5.27,0,8.85,3,8.85,7.4s-3.58,7.4-8.85,7.4h-6.91v-14.8ZM408.21,264.45c4.05,0,6.65-2.24,6.65-5.56s-2.6-5.56-6.65-5.56h-4.43v11.12h4.43Z"
       id="path255" />
    <path
       d="M437.83,264.45v1.84h-11.9v-14.8h11.57v1.84h-9.23v4.55h8.22v1.8h-8.22v4.78h9.56Z"
       id="path257" />
    <path
       d="M456.73,264.6l.87-1.65c1.22.99,3.3,1.71,5.41,1.71,2.83,0,4.05-.99,4.05-2.28,0-3.62-9.93-1.33-9.93-6.83,0-2.28,1.97-4.23,6.28-4.23,1.92,0,3.91.47,5.27,1.31l-.77,1.69c-1.43-.83-3.04-1.21-4.5-1.21-2.79,0-3.98,1.06-3.98,2.35,0,3.62,9.93,1.35,9.93,6.79,0,2.26-2.01,4.21-6.35,4.21-2.51,0-4.97-.76-6.28-1.86Z"
       id="path259" />
    <path
       d="M476.59,258.89c0-4.33,3.7-7.57,8.74-7.57s8.69,3.21,8.69,7.57-3.7,7.57-8.69,7.57-8.74-3.24-8.74-7.57ZM491.67,258.89c0-3.28-2.72-5.69-6.35-5.69s-6.39,2.41-6.39,5.69,2.72,5.69,6.39,5.69,6.35-2.41,6.35-5.69Z"
       id="path261" />
    <path
       d="M502.75,251.49h2.34v12.96h8.88v1.84h-11.22v-14.8Z"
       id="path263" />
    <path
       d="M521.39,259.91v-8.42h2.34v8.33c0,3.28,1.66,4.76,4.61,4.76s4.64-1.48,4.64-4.76v-8.33h2.27v8.42c0,4.29-2.6,6.56-6.93,6.56s-6.93-2.26-6.93-6.56Z"
       id="path265" />
    <path
       d="M557.27,262.8l1.52,1.33c-1.48,1.48-3.61,2.28-6.09,2.33l-.26.89c1.36.13,2.04.82,2.04,1.75,0,1.18-1.15,1.92-2.9,1.92-.82,0-1.5-.15-2.08-.46l.49-1.04c.49.25,1.01.36,1.59.36.89,0,1.31-.32,1.31-.85,0-.49-.4-.82-1.33-.82h-.63l.51-1.82c-4.4-.42-7.57-3.47-7.57-7.51,0-4.38,3.7-7.57,8.69-7.57,2.53,0,4.73.78,6.23,2.31l-1.52,1.33c-1.26-1.21-2.81-1.75-4.61-1.75-3.7,0-6.44,2.41-6.44,5.69s2.74,5.69,6.44,5.69c1.8,0,3.35-.57,4.61-1.78Z"
       id="path267" />
    <path
       d="M565.6,258.89c0-4.33,3.7-7.57,8.74-7.57s8.69,3.21,8.69,7.57-3.7,7.57-8.69,7.57-8.74-3.24-8.74-7.57ZM580.69,258.89c0-3.28-2.72-5.69-6.35-5.69s-6.39,2.41-6.39,5.69,2.72,5.69,6.39,5.69,6.35-2.41,6.35-5.69ZM572.86,248.8c-.68,0-1.15.49-1.19,1.31h-1.26c.05-1.57.94-2.58,2.3-2.58,1.5,0,2.25,1.44,3.11,1.44.68,0,1.15-.49,1.2-1.27h1.26c-.05,1.5-.94,2.52-2.3,2.52-1.5,0-2.25-1.42-3.12-1.42Z"
       id="path269" />
    <path
       d="M603.66,264.45v1.84h-11.9v-14.8h11.57v1.84h-9.23v4.55h8.22v1.8h-8.22v4.78h9.56Z"
       id="path271" />
    <path
       d="M611.11,264.6l.87-1.65c1.22.99,3.3,1.71,5.41,1.71,2.83,0,4.05-.99,4.05-2.28,0-3.62-9.93-1.33-9.93-6.83,0-2.28,1.97-4.23,6.28-4.23,1.92,0,3.91.47,5.27,1.31l-.77,1.69c-1.43-.83-3.04-1.21-4.5-1.21-2.79,0-3.98,1.06-3.98,2.35,0,3.62,9.93,1.35,9.93,6.79,0,2.26-2.01,4.21-6.35,4.21-2.51,0-4.97-.76-6.28-1.86Z"
       id="path273" />
    <path
       d="M655.65,264.45v1.84h-11.9v-14.8h11.57v1.84h-9.23v4.55h8.22v1.8h-8.22v4.78h9.56Z"
       id="path275" />
    <path
       d="M679.79,266.29l-.02-10.79-5.93,8.99h-1.08l-5.93-8.92v10.72h-2.25v-14.8h1.92l6.84,10.4,6.75-10.4h1.92l.02,14.8h-2.25Z"
       id="path277" />
    <path
       d="M706.82,253.33h-5.62v-1.84h13.56v1.84h-5.62v12.96h-2.32v-12.96Z"
       id="path279" />
    <path
       d="M722.46,251.49h2.34v14.8h-2.34v-14.8Z"
       id="path281" />
  </g>
  <path
     style="fill:#ffffff;stroke-width:0.487433"
     d="m 213.73936,174.41527 c -14.40627,-1.22343 -28.92094,-5.32429 -42.14603,-11.90761 -4.16467,-2.07313 -7.93995,-4.06126 -8.38949,-4.41807 -0.74159,-0.5886 -0.34109,-1.42462 4.32036,-9.01841 l 5.13773,-8.36967 2.31237,1.42282 c 8.84892,5.44479 24.48301,10.68223 36.34355,12.17512 5.7239,0.72047 16.59271,0.33544 21.08117,-0.7468 7.45655,-1.79791 10.83003,-4.91398 10.83003,-10.00364 0,-2.92991 -0.83379,-4.74625 -3.02528,-6.59027 -3.4047,-2.86487 -6.3774,-3.63194 -28.17043,-7.26912 -17.57246,-2.93279 -22.54266,-4.18194 -29.00226,-7.2891 -9.9027,-4.76335 -14.71246,-10.3285 -16.59209,-19.19795 -2.21384,-10.446525 1.19464,-20.185114 9.18369,-26.239331 8.4193,-6.380252 19.99328,-9.148554 38.11668,-9.116864 17.44798,0.03051 30.70098,2.987318 44.93284,10.024747 l 4.96333,2.454289 -3.92155,7.849443 c -2.15684,4.317193 -3.98379,7.918139 -4.05988,8.0021 -0.0761,0.08396 -1.86096,-0.711999 -3.96639,-1.768804 -7.85363,-3.942084 -18.31695,-6.540059 -29.92023,-7.429006 -16.30604,-1.249234 -27.31502,1.162941 -29.74613,6.517663 -1.66541,3.668201 -1.00986,8.063913 1.55465,10.424463 0.64109,0.59011 2.14994,1.5063 3.35299,2.03599 2.50867,1.10453 3.65396,1.33782 27.94205,5.69151 9.87566,1.77023 19.64671,3.72474 21.71344,4.34334 15.79206,4.72677 22.60196,11.85274 23.30429,24.38594 0.81736,14.58564 -7.69817,25.68131 -23.4914,30.60912 -9.44161,2.94597 -22.36333,4.30236 -32.65801,3.4281 z"
     id="path530" />
  <path
     style="fill:#ffffff;stroke-width:0.487433"
     d="M 275.88706,121.34212 V 70.864116 l 35.70447,0.19656 c 38.77535,0.213466 39.08761,0.233589 47.89029,3.086325 11.90829,3.859189 19.29021,11.25262 21.46028,21.493754 0.92719,4.375625 0.9042,12.428855 -0.0488,17.098665 -2.33042,11.4192 -11.28405,20.50617 -23.61825,23.97 -7.50933,2.10886 -12.13265,2.43431 -34.71626,2.44376 l -21.32519,0.009 v 16.32901 16.329 h -12.67326 -12.67326 z m 62.89164,-1.21894 c 5.2001,-0.65023 9.13472,-2.37806 11.66409,-5.12211 2.50404,-2.71656 3.44584,-5.02337 3.77746,-9.25234 0.39901,-5.08817 -0.73982,-8.591902 -3.73516,-11.491718 -4.34225,-4.203773 -8.37597,-4.804134 -32.31322,-4.809362 l -16.93829,-0.0037 v 15.59786 15.59785 h 16.70737 c 9.18905,0 18.56604,-0.23241 20.83775,-0.51648 z"
     id="path532" />
  <path
     style="fill:#ffffff;stroke-width:0.487433"
     d="M 387.50922,121.12709 V 70.921498 h 49.23073 49.23073 v 9.504943 9.504943 H 449.90064 413.8306 v 10.723526 10.72352 h 31.19571 31.19571 v 9.01752 9.01751 H 445.02631 413.8306 v 11.45467 11.45467 h 37.0449 37.04491 v 9.50495 9.50494 h -50.2056 -50.20559 z"
     id="path534" />
  <path
     style="fill:#ffffff;stroke-width:0.487433"
     d="M 496.6942,121.12709 V 70.921498 h 49.23073 49.23073 v 9.504943 9.504943 h -36.07004 -36.07004 v 10.723526 10.72352 h 30.952 30.95199 v 9.01752 9.01751 h -30.95199 -30.952 v 11.45467 11.45467 h 36.80119 36.80119 v 9.50495 9.50494 H 546.65608 496.6942 Z"
     id="path536" />
  <path
     style="fill:#ffffff;stroke-width:0.487433"
     d="M 605.87919,121.43136 V 70.921498 h 30.72749 c 18.2955,0 32.64251,0.208601 35.46075,0.515588 28.35616,3.088804 47.21374,16.040314 52.83233,36.285604 0.93813,3.38034 1.08239,5.09994 1.08359,12.91697 9.8e-4,6.83445 -0.19742,9.81253 -0.81983,12.3015 -5.49024,21.95502 -21.8626,33.89831 -51.68959,37.70645 -4.56494,0.58282 -13.0493,0.81952 -36.76461,1.02564 l -30.83013,0.26797 z m 65.84417,29.74214 c 2.30115,-0.42741 5.77445,-1.31524 7.71846,-1.97295 12.54687,-4.2449 19.55555,-14.26733 19.52861,-27.92596 -0.0242,-12.28632 -5.27052,-21.418514 -15.1542,-26.378881 -8.08566,-4.057991 -14.81081,-4.944484 -37.60196,-4.95661 l -14.50113,-0.0077 v 31.255451 31.25546 l 17.91316,-0.24584 c 13.44517,-0.18452 18.95673,-0.43967 22.09706,-1.02296 z"
     id="path538" />
  <path
     style="fill:#ffffff;stroke-width:0.487433"
     d="m 178.64419,235.44624 c -4.46295,-1.02886 -9.90789,-3.09029 -13.23075,-5.00911 l -2.99466,-1.7293 1.6887,-2.35054 1.68869,-2.35054 1.89767,1.19795 c 6.29423,3.97338 16.2648,6.07934 24.29272,5.13107 7.3184,-0.86447 10.29274,-3.21902 10.2963,-8.15079 0.004,-4.99794 -2.7314,-6.54081 -15.35231,-8.66053 -13.29447,-2.23285 -17.44231,-3.68896 -20.42097,-7.16886 -4.05109,-4.73279 -3.33853,-12.45676 1.51879,-16.46319 6.57302,-5.42159 23.166,-5.81026 34.46294,-0.80727 4.27397,1.89279 4.33084,1.97182 3.13106,4.35161 -0.56119,1.11314 -1.06844,2.08066 -1.12722,2.15005 -0.0588,0.0694 -1.5124,-0.50718 -3.23026,-1.28129 -4.76385,-2.14668 -9.31698,-2.98806 -16.16997,-2.98806 -7.42108,0 -10.3538,0.74869 -12.49777,3.19054 -1.28992,1.46913 -1.50818,2.10077 -1.50818,4.36467 0,2.22433 0.22519,2.90343 1.41032,4.25322 1.86934,2.12907 2.85772,2.43081 15.46351,4.7209 12.92933,2.34887 15.71521,3.28798 18.7734,6.32847 1.86334,1.85256 2.35982,2.73735 2.84017,5.06156 1.48136,7.16775 -2.34571,13.00976 -10.17479,15.53178 -4.13361,1.33158 -16.21055,1.72585 -20.75739,0.67766 z"
     id="path540" />
  <path
     style="fill:#ffffff;stroke-width:0.487433"
     d="m 282.695,226.29076 -0.0161,-8.89565 -11.19484,-15.09165 c -6.15716,-8.3004 -11.19483,-15.15493 -11.19483,-15.23228 0,-0.0773 1.80959,-0.1379 4.02132,-0.13456 l 4.02132,0.006 9.01751,12.93109 c 8.7387,12.53127 9.04251,12.90036 9.82585,11.9372 0.44459,-0.54664 4.56816,-6.36836 9.1635,-12.93716 l 8.35516,-11.94327 h 3.9041 c 2.98622,0 3.82127,0.14324 3.55179,0.60929 -0.19378,0.33511 -5.25165,7.22877 -11.23973,15.31924 l -10.88741,14.70996 v 8.80868 8.80869 h -3.65575 -3.65574 l -0.0161,-8.89565 z"
     id="path542" />
  <path
     style="fill:#ffffff;stroke-width:0.487433"
     d="m 374.84624,234.9199 c -4.51502,-1.16624 -12.70271,-4.67486 -13.6926,-5.86761 -0.35507,-0.42782 -0.0618,-1.21671 1.02572,-2.75965 l 1.52292,-2.16058 4.2264,2.126 c 6.04786,3.04225 10.77142,4.16388 17.6308,4.18649 8.96831,0.0296 13.5103,-1.84945 14.64356,-6.05804 1.05769,-3.92798 -0.78639,-7.02718 -5.15355,-8.66115 -1.46045,-0.54642 -6.55112,-1.65041 -11.31259,-2.45332 -10.05016,-1.6947 -12.58742,-2.39041 -16.08995,-4.4118 -4.3514,-2.5113 -6.23277,-6.81831 -5.40919,-12.38323 0.7043,-4.75891 5.23987,-8.64458 11.787,-10.09802 4.69427,-1.04212 15.27012,-0.78032 20.03217,0.49589 4.2297,1.13354 10.51244,3.84336 10.51244,4.53414 0,0.51666 -1.89018,4.29532 -2.14863,4.29532 -0.0985,0 -1.59525,-0.6627 -3.32612,-1.47267 -4.90994,-2.29765 -9.2927,-3.01633 -17.19088,-2.81895 -5.9542,0.1488 -7.09057,0.31143 -8.91478,1.27587 -5.36281,2.83527 -5.34428,9.91443 0.0321,12.27058 1.13222,0.49619 6.55515,1.71298 12.05096,2.70398 16.03484,2.89139 19.52858,4.38472 21.78395,9.31111 2.78576,6.08489 0.0828,13.26436 -6.22108,16.52423 -5.60614,2.89905 -17.52485,3.55598 -25.78868,1.42141 z"
     id="path544" />
  <path
     style="fill:#ffffff;stroke-width:0.487433"
     d="M 479.63405,213.98308 V 192.77974 H 468.91052 458.187 v -2.9246 -2.92459 h 25.1028 25.10279 v 2.92459 2.9246 h -10.72352 -10.72353 v 21.20334 21.20333 h -3.65574 -3.65575 z"
     id="path546" />
  <path
     style="fill:#ffffff;stroke-width:0.487433"
     d="m 563.47252,211.05848 v -24.12793 h 21.44705 21.44705 v 2.68088 2.68088 h -17.7913 -17.79131 v 7.79893 7.79892 h 15.11043 15.11042 v 2.68089 2.68088 h -15.11042 -15.11043 v 8.04264 8.04265 h 18.03502 18.03502 v 2.92459 2.9246 h -21.69076 -21.69077 z"
     id="path548" />
  <path
     style="fill:#ffffff;stroke-width:0.487433"
     d="m 665.34601,211.05848 v -24.12793 h 4.86188 4.86187 l 9.39088,18.64431 c 5.16498,10.25437 9.8036,19.74103 10.30805,21.08147 0.50445,1.34044 1.08375,2.61954 1.28732,2.84245 0.20358,0.2229 0.94898,-1.09317 1.65645,-2.9246 0.70746,-1.83143 5.40507,-11.44564 10.43913,-21.3649 l 9.15283,-18.03502 4.97279,-0.13891 4.97279,-0.13891 v 24.14499 24.14498 h -3.41203 -3.41203 v -20.81339 c 0,-11.44736 -0.18419,-20.60501 -0.40931,-20.35032 -0.22512,0.25468 -0.69759,1.23076 -1.04992,2.16907 -0.35235,0.93831 -4.9389,10.09099 -10.19236,20.33929 l -9.55175,18.63326 -3.20422,0.011 -3.20423,0.011 -8.9816,-17.41588 c -4.93988,-9.57874 -9.63963,-18.95573 -10.44389,-20.83776 l -1.4623,-3.42188 -0.12709,20.83776 -0.1271,20.83776 h -3.16308 -3.16308 z"
     id="path550" />
  <path
     style="fill:#ffffff;stroke-width:0.197201"
     d="m 161.90183,258.82601 v -7.29643 h 5.71883 5.71882 v 0.88741 0.8874 h -4.63422 -4.63422 v 2.36641 2.36641 h 4.14122 4.14121 v 0.7888 0.78881 h -4.14121 -4.14122 v 2.46501 2.46501 h 4.83142 4.83142 v 0.7888 0.7888 h -5.91602 -5.91603 z"
     id="path554" />
  <path
     style="fill:#ffffff;stroke-width:0.197201"
     d="m 187.31844,266.04552 c -2.4503,-0.70796 -4.18262,-2.06178 -5.14698,-4.02238 -0.59578,-1.21126 -0.64797,-1.46934 -0.64598,-3.19413 0.002,-1.67825 0.0629,-1.99673 0.57697,-3.01574 0.63403,-1.25678 2.00108,-2.65223 3.1949,-3.26127 3.06686,-1.56459 7.25676,-1.41438 9.82442,0.35222 l 0.93849,0.64569 -0.61305,0.61306 c -0.60962,0.60962 -0.61609,0.61107 -1.15525,0.25988 -2.91837,-1.90094 -6.75048,-1.67823 -9.08842,0.52819 -1.46346,1.38115 -2.00008,3.78086 -1.31003,5.85839 0.46961,1.41385 1.80446,2.74168 3.36028,3.34259 1.7582,0.67907 4.14541,0.65625 5.60856,-0.0536 0.59654,-0.28942 1.26209,-0.65692 1.47901,-0.81668 0.36007,-0.26517 0.44961,-0.24077 1.02857,0.28032 l 0.63416,0.57079 -0.73277,0.60441 c -1.21628,1.00323 -2.62642,1.43001 -4.97258,1.50497 -1.32994,0.0425 -2.396,-0.0279 -2.9803,-0.19669 z"
     id="path556" />
  <path
     style="fill:#ffffff;stroke-width:0.197201"
     d="m 209.08225,266.01494 c -3.78599,-1.01948 -6.22649,-4.21551 -5.89878,-7.72492 0.41984,-4.49592 4.74122,-7.39872 10.03986,-6.74407 2.97435,0.36748 5.7214,2.37399 6.66052,4.86501 0.34927,0.92641 0.41295,1.43919 0.34891,2.80945 -0.0674,1.44138 -0.1716,1.85084 -0.74405,2.9227 -1.04018,1.94765 -2.78758,3.259 -5.19781,3.90073 -1.29746,0.34546 -3.87146,0.33117 -5.20865,-0.0289 z m 3.99834,-1.48775 c 3.1765,-0.58721 5.01204,-2.6369 5.01721,-5.60258 0.006,-3.2197 -2.28096,-5.4955 -5.78797,-5.76074 -4.16563,-0.31504 -7.27394,2.43014 -6.97456,6.15977 0.21586,2.68922 2.07425,4.64283 4.96096,5.21515 1.15962,0.2299 1.48529,0.22855 2.78436,-0.0116 z"
     id="path558" />
  <path
     style="fill:#ffffff;stroke-width:0.197201"
     d="m 231.07447,266.02473 c -1.30762,-0.33056 -3.11038,-1.1959 -3.11038,-1.49301 0,-0.11202 0.13201,-0.45895 0.29336,-0.77096 l 0.29336,-0.56729 1.13635,0.55822 c 2.03136,0.99789 4.57039,1.26694 6.51274,0.69012 1.244,-0.36943 1.82143,-1.03586 1.82143,-2.10219 0,-1.37002 -0.95973,-1.897 -5.19164,-2.85064 -3.52205,-0.79368 -5.02543,-2.34618 -4.57858,-4.72814 0.20483,-1.09181 1.68636,-2.46362 3.164,-2.92967 1.63347,-0.5152 4.46925,-0.48048 6.21182,0.0761 1.89123,0.60402 1.92703,0.63953 1.51528,1.50299 -0.26603,0.55786 -0.42036,0.68737 -0.68298,0.57315 -1.54793,-0.67329 -2.44584,-0.86345 -4.08611,-0.8654 -2.72509,-0.003 -4.04262,0.76677 -4.04262,2.36262 0,0.5201 0.14395,0.84034 0.5423,1.20648 0.68811,0.63247 1.22664,0.8345 3.87567,1.45399 2.70263,0.63202 3.90755,1.14757 4.64498,1.98745 1.03079,1.17401 1.04991,2.95729 0.0451,4.20397 -0.31269,0.38795 -1.0752,0.96607 -1.69446,1.28472 -1.01753,0.52357 -1.3384,0.58482 -3.33304,0.6362 -1.45302,0.0374 -2.593,-0.0407 -3.33655,-0.22866 z"
     id="path560" />
  <path
     style="fill:#ffffff;stroke-width:0.197201"
     d="m 251.13518,266.10268 c -1.15835,-0.26043 -2.48943,-0.77593 -3.09565,-1.19889 l -0.53204,-0.3712 0.39201,-0.66441 0.39201,-0.6644 1.12604,0.55306 c 2.02118,0.99273 4.56407,1.2606 6.50243,0.68497 1.23013,-0.36531 1.82143,-1.03806 1.82143,-2.07235 0,-1.25331 -0.8219,-1.7827 -3.96648,-2.55484 -3.15832,-0.77551 -4.53603,-1.37797 -5.22911,-2.28665 -0.60821,-0.7974 -0.81004,-2.1003 -0.48019,-3.09975 0.34447,-1.04376 1.73888,-2.22358 3.10369,-2.62605 1.62471,-0.47911 4.50179,-0.43019 6.17769,0.10505 1.89123,0.60402 1.92703,0.63953 1.51528,1.50299 -0.26603,0.55786 -0.42037,0.68737 -0.68299,0.57315 -1.54792,-0.67329 -2.44583,-0.86345 -4.08611,-0.8654 -1.96666,-0.002 -3.14775,0.37699 -3.72068,1.19497 -0.32371,0.46216 -0.4235,1.45533 -0.20376,2.02795 0.22489,0.58607 1.40414,1.09862 3.94064,1.71276 4.17613,1.01115 5.53623,1.91026 5.7493,3.80066 0.2983,2.64652 -2.28557,4.49124 -6.22677,4.44553 -0.93936,-0.0109 -2.0629,-0.0996 -2.49674,-0.19715 z"
     id="path562" />
  <path
     style="fill:#ffffff;stroke-width:0.197201"
     d="m 268.58745,258.82601 v -7.29643 h 1.08461 1.0846 v 7.29643 7.29643 h -1.0846 -1.08461 z"
     id="path564" />
  <path
     style="fill:#ffffff;stroke-width:0.197201"
     d="m 282.61829,265.93028 c -1.16053,-0.31358 -2.24365,-0.79144 -2.95284,-1.30276 -0.0525,-0.0378 0.49784,-1.23447 0.65227,-1.4184 0.0249,-0.0297 0.43513,0.16829 0.91163,0.43987 2.58845,1.47532 7.05639,1.38885 8.3063,-0.16075 0.75401,-0.9348 0.19738,-2.41889 -1.11251,-2.9662 -0.35021,-0.14633 -1.64685,-0.50291 -2.88141,-0.79241 -4.26352,-0.99975 -5.51663,-1.95552 -5.51663,-4.20763 0,-1.38702 0.81537,-2.60115 2.19887,-3.27422 2.09332,-1.01839 5.49202,-1.05926 7.93753,-0.0954 0.55299,0.21794 1.02879,0.41957 1.05733,0.44807 0.0285,0.0285 -0.0868,0.38382 -0.25638,0.7896 -0.23802,0.56966 -0.38466,0.70576 -0.64349,0.59724 -2.0477,-0.85851 -4.88846,-1.15109 -6.36972,-0.65604 -2.00631,0.67054 -2.47894,2.72408 -0.8576,3.72613 0.36589,0.22613 1.87135,0.70703 3.34548,1.06867 3.06703,0.75242 4.34646,1.33456 4.97152,2.26203 1.31715,1.95442 0.25287,4.54122 -2.23489,5.43204 -1.51277,0.54169 -4.75669,0.59622 -6.55546,0.11019 z"
     id="path566" />
  <path
     style="fill:#ffffff;stroke-width:0.197201"
     d="m 303.68919,259.71342 v -6.40903 h -2.76081 -2.76081 v -0.8874 -0.88741 h 6.70482 6.70483 v 0.88741 0.8874 h -2.85941 -2.85941 v 6.40903 6.40902 h -1.08461 -1.0846 z"
     id="path568" />
  <path
     style="fill:#ffffff;stroke-width:0.197201"
     d="m 319.46525,258.82601 v -7.29643 h 5.71882 5.71882 v 0.88741 0.8874 h -4.63421 -4.63422 v 2.36641 2.36641 h 4.04261 4.04262 v 0.7888 0.78881 h -4.04262 -4.04261 v 2.46501 2.46501 h 4.73282 4.73282 v 0.7888 0.7888 h -5.81743 -5.81742 z"
     id="path570" />
  <path
     style="fill:#ffffff;stroke-width:0.197201"
     d="m 340.17133,258.82601 v -7.29643 l 0.9367,0.009 0.93671,0.009 3.35241,5.13626 c 1.84383,2.82494 3.41041,5.17229 3.48129,5.21633 0.0709,0.044 1.65462,-2.27149 3.51942,-5.14563 l 3.39055,-5.2257 h 0.86829 0.8683 v 7.29643 7.29643 h -0.986 -0.98601 v -5.21418 c 0,-2.8678 -0.0713,-5.25824 -0.15843,-5.3121 -0.0871,-0.0539 -1.47291,1.8932 -3.07951,4.32678 -2.58914,3.92188 -2.98011,4.42416 -3.44049,4.41997 -0.45704,-0.004 -0.87451,-0.54037 -3.47741,-4.46651 l -2.95801,-4.46179 -0.0525,5.35392 -0.0525,5.35391 h -1.08143 -1.08144 z"
     id="path572" />
  <path
     style="fill:#ffffff;stroke-width:0.197201"
     d="m 369.06124,258.82601 3.64926,-7.29643 h 1.08356 1.08357 l 3.64925,7.29643 3.64925,7.29643 h -1.08314 -1.08314 l -0.89137,-1.77481 -0.89136,-1.7748 h -4.43306 -4.43306 l -0.89136,1.7748 -0.89136,1.77481 h -1.08314 -1.08315 z m 8.11624,1.52831 c -0.14855,-0.3525 -0.97755,-2.05139 -1.84221,-3.77531 l -1.57211,-3.13441 -1.80866,3.70031 c -0.99476,2.03518 -1.80865,3.73406 -1.80865,3.77531 0,0.0413 1.64289,0.075 3.65086,0.075 h 3.65086 z"
     id="path576" />
  <path
     style="fill:#ffffff;stroke-width:0.197201"
     d="m 401.50077,258.80492 v -7.31752 l 4.48632,0.089 c 5.10656,0.10136 6.20257,0.32733 8.14379,1.67905 4.22532,2.94219 3.80641,9.25724 -0.77965,11.75329 -1.73612,0.94492 -2.88065,1.11366 -7.55347,1.11366 h -4.29699 z m 9.94027,5.1585 c 2.37914,-0.93151 3.61127,-2.91333 3.42494,-5.50889 -0.17176,-2.3926 -1.50127,-4.03109 -3.8628,-4.76049 -1.02488,-0.31656 -1.83098,-0.38965 -4.29736,-0.38965 h -3.03584 v 5.64011 5.6401 l 3.30311,-0.0826 c 2.86253,-0.0715 3.45849,-0.14339 4.46795,-0.53862 z"
     id="path578" />
  <path
     style="fill:#ffffff;stroke-width:0.197201"
     d="m 425.95367,258.82601 v -7.29643 h 5.71882 5.71882 v 0.88741 0.8874 h -4.63422 -4.63421 v 2.36641 2.36641 h 4.14121 4.14122 v 0.7888 0.78881 h -4.14122 -4.14121 v 2.46501 2.46501 h 4.83141 4.83142 v 0.7888 0.7888 h -5.91602 -5.91602 z"
     id="path580" />
  <path
     style="fill:#ffffff;stroke-width:0.197201"
     d="m 460.09088,266.01959 c -1.04108,-0.29153 -2.42902,-0.87314 -2.9416,-1.23264 -0.20885,-0.14649 -0.1922,-0.31869 0.0876,-0.90538 0.19001,-0.39847 0.39481,-0.6964 0.45511,-0.66206 1.00854,0.57436 2.5635,1.17651 3.4829,1.34873 1.55503,0.29127 3.7732,0.11141 4.74592,-0.38483 1.64232,-0.83785 1.65687,-2.66061 0.028,-3.50295 -0.33237,-0.17188 -1.7841,-0.60964 -3.22605,-0.97281 -2.95773,-0.74493 -3.9517,-1.18308 -4.69917,-2.07139 -0.64256,-0.76365 -0.78898,-1.32284 -0.67016,-2.55944 0.18077,-1.88133 1.84305,-3.15082 4.63873,-3.54264 2.00044,-0.28036 5.36884,0.26408 6.29989,1.01827 0.29088,0.23563 -0.28938,1.6011 -0.61935,1.45742 -0.11452,-0.0499 -0.81281,-0.28371 -1.55174,-0.51965 -1.83228,-0.58505 -4.6137,-0.49722 -5.70994,0.18029 -1.40396,0.86769 -1.4176,2.61073 -0.0268,3.4205 0.33583,0.19553 1.81746,0.65946 3.29251,1.03097 1.47505,0.37151 3.00352,0.82808 3.39661,1.01461 1.67249,0.79365 2.47843,2.30388 2.05958,3.85937 -0.33066,1.22798 -0.93219,1.89588 -2.32503,2.58157 -1.14633,0.56434 -1.45531,0.6251 -3.45637,0.67976 -1.52244,0.0416 -2.52408,-0.0314 -3.26062,-0.2377 z"
     id="path582" />
  <path
     style="fill:#ffffff;stroke-width:0.197201"
     d="m 482.71059,266.0418 c -3.18231,-0.91777 -5.29259,-3.03589 -5.87593,-5.89779 -1.02389,-5.0232 3.91018,-9.35286 9.80754,-8.60616 3.91981,0.49631 6.53087,2.77201 7.17434,6.25286 0.58625,3.17134 -1.4085,6.50152 -4.69678,7.84113 -1.11204,0.45303 -1.70057,0.55852 -3.41426,0.61196 -1.33796,0.0417 -2.39766,-0.0298 -2.99491,-0.202 z m 5.23439,-1.81362 c 1.1806,-0.40227 2.73447,-1.80655 3.30942,-2.99081 0.67349,-1.38722 0.63627,-3.33624 -0.0921,-4.82504 -0.63152,-1.29077 -1.36907,-1.97801 -2.89316,-2.69576 -0.93186,-0.43884 -1.34844,-0.51028 -2.95801,-0.50722 -1.59512,0.003 -2.03452,0.0789 -2.95801,0.51079 -1.44467,0.6756 -2.17814,1.32552 -2.81361,2.49307 -1.86691,3.43014 0.2066,7.47437 4.27429,8.33667 1.04759,0.22207 2.97604,0.0719 4.13121,-0.3217 z"
     id="path584" />
  <path
     style="fill:#ffffff;stroke-width:0.197201"
     d="m 502.86197,258.82601 v -7.29643 h 1.0846 1.08461 v 6.50763 6.50763 h 4.43701 4.43702 v 0.7888 0.7888 h -5.52162 -5.52162 z"
     id="path586" />
  <path
     style="fill:#ffffff;stroke-width:0.197201"
     d="m 525.71166,266.01105 c -1.421,-0.43754 -2.7273,-1.43338 -3.35423,-2.55705 -0.75431,-1.35199 -0.95003,-2.95772 -0.95468,-7.8325 l -0.004,-4.09192 h 1.0846 1.08461 v 4.31151 c 0,4.74009 0.16294,6.06677 0.87776,7.14694 1.32851,2.00751 5.70386,2.25178 7.46207,0.41661 1.00223,-1.04611 1.12581,-1.82197 1.12581,-7.06843 v -4.80663 h 1.0846 1.0846 v 4.41011 c 0,5.95988 -0.24373,7.08118 -1.89963,8.73926 -0.61245,0.61326 -1.1616,0.92883 -2.14478,1.23251 -1.56293,0.48274 -4.05451,0.52829 -5.44682,0.0996 z"
     id="path588" />
  <path
     style="fill:#ffffff;stroke-width:0.197201"
     d="m 550.14085,270.71932 c -0.36494,-0.0954 -0.43769,-0.39912 -0.1892,-0.78999 0.10508,-0.16529 0.37078,-0.18591 0.88912,-0.069 1.23917,0.27948 2.11019,-0.0902 2.11019,-0.89569 0,-0.52486 -0.51332,-0.87019 -1.29349,-0.87019 -0.47391,0 -0.51892,-0.058 -0.42117,-0.5423 0.0602,-0.29827 0.16658,-0.68995 0.23642,-0.8704 0.10425,-0.26936 -0.0786,-0.37023 -1.02149,-0.56345 -2.51754,-0.51591 -4.94075,-2.28637 -5.80574,-4.24184 -1.46322,-3.30785 -0.29501,-7.14349 2.75288,-9.03869 1.85654,-1.15441 4.42845,-1.6589 6.66404,-1.30718 1.35186,0.21269 3.31064,1.02049 4.18018,1.72391 l 0.46022,0.3723 -0.71807,0.54769 -0.71806,0.54769 -0.75507,-0.49967 c -2.58541,-1.71095 -6.6588,-1.35643 -8.77932,0.76409 -2.07049,2.07049 -2.09169,5.61654 -0.0464,7.75174 2.13278,2.22646 6.51453,2.56484 8.96912,0.69264 l 0.67457,-0.51452 0.60531,0.60531 c 0.47777,0.47777 0.55735,0.66311 0.37768,0.8796 -0.65465,0.78881 -3.64824,1.91827 -5.08429,1.91827 -0.48225,0 -0.65304,0.10177 -0.74468,0.4437 -0.17842,0.66579 -0.16966,0.68113 0.46115,0.80729 1.69439,0.33888 1.88894,2.33846 0.29243,3.00552 -0.62968,0.2631 -2.33562,0.34198 -3.09638,0.14317 z"
     id="path590" />
  <path
     style="fill:#ffffff;stroke-width:0.197201"
     d="m 571.73721,266.01564 c -2.40021,-0.64641 -4.26584,-2.07376 -5.31508,-4.06646 -0.50032,-0.95021 -0.55423,-1.24432 -0.55436,-3.02457 -1.4e-4,-1.75439 0.06,-2.0944 0.54455,-3.08117 1.32343,-2.69488 4.36709,-4.37181 7.93493,-4.37181 3.61761,0 6.46919,1.58536 7.83148,4.35397 0.59057,1.20022 0.64743,1.47523 0.64004,3.09553 -0.007,1.53086 -0.0843,1.93573 -0.5555,2.90983 -1.36093,2.81323 -4.39144,4.50726 -8.00675,4.4757 -0.81779,-0.007 -1.95147,-0.1381 -2.51931,-0.29102 z m 3.99727,-1.48876 c 2.96531,-0.54816 4.8058,-2.48209 4.98605,-5.23917 0.11633,-1.7795 -0.36901,-3.06138 -1.64052,-4.33289 -1.72663,-1.72663 -4.38925,-2.2759 -7.04949,-1.45423 -2.55927,0.79048 -4.09057,2.8232 -4.08604,5.42402 0.005,2.82483 1.78468,4.91689 4.72109,5.54952 1.4159,0.30505 1.67959,0.30958 3.06891,0.0528 z"
     id="path592" />
  <path
     style="fill:#ffffff;stroke-width:0.197201"
     d="m 574.36106,249.45898 c -0.63041,-0.37962 -1.35096,-0.69021 -1.60122,-0.69021 -0.51024,0 -1.0748,0.47353 -1.0748,0.90149 0,0.18155 -0.21035,0.28172 -0.59161,0.28172 -0.67423,0 -0.71753,-0.16802 -0.28056,-1.08887 0.31211,-0.65772 1.28036,-1.27754 1.99571,-1.27754 0.20556,0 0.8577,0.30832 1.44921,0.68515 1.41578,0.90197 2.30027,0.93703 2.61483,0.10365 0.17437,-0.46197 0.34347,-0.5916 0.77167,-0.5916 0.63619,0 0.67035,0.17635 0.21859,1.12836 -0.32643,0.68789 -1.21188,1.23805 -1.99259,1.23805 -0.19967,0 -0.87883,-0.31059 -1.50923,-0.6902 z"
     id="path594" />
  <path
     style="fill:#ffffff;stroke-width:0.197201"
     d="m 591.79952,258.82601 v -7.29643 h 5.71882 5.71882 v 0.88741 0.8874 h -4.63422 -4.63422 v 2.36641 2.36641 h 4.14122 4.14122 v 0.7888 0.78881 h -4.14122 -4.14122 v 2.46501 2.46501 h 4.83142 4.83142 v 0.7888 0.7888 h -5.91602 -5.91602 z"
     id="path596" />
  <path
     style="fill:#ffffff;stroke-width:0.197201"
     d="m 614.4776,266.01761 c -1.31881,-0.36441 -3.15521,-1.23408 -3.15521,-1.49422 0,-0.1043 0.15062,-0.43055 0.33472,-0.725 0.18409,-0.29445 0.34808,-0.55884 0.36441,-0.58754 0.0163,-0.0287 0.42353,0.16794 0.90488,0.43697 1.9871,1.11061 5.66475,1.43134 7.21576,0.62928 0.96693,-0.50002 1.48921,-1.29178 1.36343,-2.06691 -0.20667,-1.27355 -0.74382,-1.58102 -4.34773,-2.4887 -2.8688,-0.72254 -3.8858,-1.1592 -4.68447,-2.01132 -1.27267,-1.35787 -1.0793,-3.60138 0.41909,-4.86219 1.92829,-1.62255 6.59047,-1.87309 9.32115,-0.50091 l 0.7354,0.36955 -0.33108,0.69427 c -0.23632,0.49558 -0.41857,0.6573 -0.63679,0.56505 -2.25334,-0.95245 -5.33931,-1.1712 -6.84958,-0.48551 -1.27828,0.58036 -1.81285,1.95866 -1.13501,2.92642 0.46587,0.66511 1.2429,0.98848 4.1112,1.71089 4.04775,1.01946 5.219,1.80898 5.39459,3.63637 0.12765,1.32847 -0.0369,1.86484 -0.84758,2.76212 -1.08904,1.20545 -2.35844,1.65065 -4.92336,1.72673 -1.51007,0.0448 -2.49878,-0.0267 -3.25382,-0.23535 z"
     id="path598" />
  <path
     style="fill:#ffffff;stroke-width:0.197201"
     d="m 643.86052,258.82601 v -7.29643 h 5.71882 5.71882 v 0.88741 0.8874 h -4.63421 -4.63422 v 2.36641 2.36641 h 4.14121 4.14122 v 0.7888 0.78881 h -4.14122 -4.14121 v 2.46501 2.46501 h 4.73282 4.73282 v 0.7888 0.7888 h -5.81743 -5.81742 z"
     id="path600" />
  <path
     style="fill:#ffffff;stroke-width:0.197201"
     d="m 664.7638,258.82601 v -7.29643 l 0.8381,0.006 0.83811,0.006 3.38306,5.17085 c 1.86068,2.84396 3.44545,5.17084 3.52171,5.17084 0.0763,0 1.6489,-2.32943 3.49477,-5.17652 l 3.35611,-5.17652 h 0.8623 0.86231 v 7.29643 7.29643 h -0.98601 -0.986 v -5.32442 c 0,-2.92843 -0.0666,-5.32229 -0.1479,-5.3197 -0.0813,0.003 -1.47025,1.99926 -3.08646,4.43702 -2.58072,3.89256 -3.00096,4.43207 -3.45101,4.43046 -0.44946,-0.002 -0.87607,-0.55309 -3.47047,-4.48632 l -2.95801,-4.48448 -0.0525,5.37372 -0.0525,5.37372 h -0.98283 -0.98284 z"
     id="path604" />
  <path
     style="fill:#ffffff;stroke-width:0.197201"
     d="m 706.96477,259.71342 v -6.40903 h -2.85941 -2.85942 v -0.8874 -0.88741 h 6.70483 6.70483 v 0.88741 0.8874 h -2.76081 -2.76081 v 6.40903 6.40902 h -1.08461 -1.0846 z"
     id="path606" />
  <path
     style="fill:#ffffff;stroke-width:0.197201"
     d="m 722.54363,258.82601 v -7.29643 h 1.0846 1.08461 v 7.29643 7.29643 h -1.08461 -1.0846 z"
     id="path608" />
</svg>
