<?xml version="1.0" encoding="UTF-8" standalone="no"?>
<svg
   id="Camada_1"
   data-name="Camada 1"
   viewBox="0 0 895.57874 301.7986"
   version="1.1"
   sodipodi:docname="Speed System VECTOR BRANCO(1).svg"
   inkscape:version="1.2.2 (b0a8486541, 2022-12-01)"
   width="895.57874"
   height="301.79861"
   xmlns:inkscape="http://www.inkscape.org/namespaces/inkscape"
   xmlns:sodipodi="http://sodipodi.sourceforge.net/DTD/sodipodi-0.dtd"
   xmlns="http://www.w3.org/2000/svg"
   xmlns:svg="http://www.w3.org/2000/svg">
  <sodipodi:namedview
     id="namedview286"
     pagecolor="#505050"
     bordercolor="#eeeeee"
     borderopacity="1"
     inkscape:showpageshadow="0"
     inkscape:pageopacity="0"
     inkscape:pagecheckerboard="0"
     inkscape:deskcolor="#505050"
     showgrid="false"
     inkscape:zoom="1.3431308"
     inkscape:cx="370.7755"
     inkscape:cy="169.38038"
     inkscape:window-width="1920"
     inkscape:window-height="1009"
     inkscape:window-x="1920"
     inkscape:window-y="32"
     inkscape:window-maximized="1"
     inkscape:current-layer="Camada_1" />
  <defs
     id="defs201">
    <style
       id="style169">
      .cls-1 {
        fill: url(#Gradiente_sem_nome_253);
      }

      .cls-2 {
        fill: url(#Gradiente_sem_nome_207);
      }
    </style>
    <linearGradient
       id="Gradiente_sem_nome_207"
       data-name="Gradiente sem nome 207"
       x1="105.11"
       y1="182.24001"
       x2="43.75"
       y2="75.949997"
       gradientUnits="userSpaceOnUse"
       gradientTransform="matrix(1.2535913,0,0,1.2535913,-48.710261,-65.917322)">
      <stop
         offset="0"
         stop-color="#5a0300"
         id="stop171" />
      <stop
         offset=".03"
         stop-color="#610200"
         id="stop173" />
      <stop
         offset=".25"
         stop-color="#8a0100"
         id="stop175" />
      <stop
         offset=".45"
         stop-color="#aa0100"
         id="stop177" />
      <stop
         offset=".65"
         stop-color="#c10000"
         id="stop179" />
      <stop
         offset=".84"
         stop-color="#cf0000"
         id="stop181" />
      <stop
         offset="1"
         stop-color="#d40000"
         id="stop183" />
    </linearGradient>
    <linearGradient
       id="Gradiente_sem_nome_253"
       data-name="Gradiente sem nome 253"
       x1="123.04"
       y1="155.95"
       x2="52.830002"
       y2="277.56"
       gradientUnits="userSpaceOnUse"
       gradientTransform="matrix(1.2535913,0,0,1.2535913,-48.710261,-65.917322)">
      <stop
         offset="0"
         stop-color="#00006f"
         id="stop186" />
      <stop
         offset=".12"
         stop-color="#00048c"
         id="stop188" />
      <stop
         offset=".31"
         stop-color="#000bb5"
         id="stop190" />
      <stop
         offset=".5"
         stop-color="#0010d5"
         id="stop192" />
      <stop
         offset=".68"
         stop-color="#0014ec"
         id="stop194" />
      <stop
         offset=".85"
         stop-color="#0016fa"
         id="stop196" />
      <stop
         offset="1"
         stop-color="#0017ff"
         id="stop198" />
    </linearGradient>
  </defs>
  <path
     class="cls-2"
     d="M 61.2673,172.70377 H 16.752274 c -5.164795,0 -9.9535142,-2.51972 -13.1501712,-6.90729 C 0.02936683,160.86987 -0.96097017,154.3888 0.96956083,148.47185 L 45.484586,12.093662 C 48.656172,2.3783301 56.904802,-0.88100686 63.661659,0.19708114 70.568947,1.3002411 78.002743,7.3926951 78.002743,18.173579 V 154.55177 c 0,10.01619 -7.509011,18.16454 -16.735443,18.16454 z M 61.129405,7.9568111 c -3.058763,0 -6.468531,1.704884 -8.060592,6.6064249 L 8.5537878,150.94143 c -1.140768,3.49752 -0.576652,7.2959 1.5043102,10.16662 0.977801,1.35388 3.159049,3.62288 6.694176,3.62288 H 61.2673 c 4.838862,0 8.775139,-4.57561 8.775139,-10.1917 V 18.161043 c 0,-6.142596 -3.823453,-9.5022209 -7.621835,-10.1039449 -0.413685,-0.06268 -0.852442,-0.100287 -1.291199,-0.100287 z"
     id="path203"
     style="fill:url(#Gradiente_sem_nome_207);stroke-width:1.25359" />
  <path
     class="cls-1"
     d="m 113.5922,135.98608 c -3.18412,-4.38757 -7.97284,-6.90729 -13.15017,-6.90729 H 78.002743 v 7.96031 h 22.439287 c 3.53512,0 5.71637,2.269 6.69417,3.62288 2.08097,2.87072 2.64508,6.6691 1.50431,10.16662 L 64.125488,287.2068 c -1.830243,5.60355 -6.04231,7.03264 -9.351791,6.50614 -3.798381,-0.60173 -7.621835,-3.96135 -7.621835,-10.10395 V 147.2308 c 0,-5.61609 3.936277,-10.1917 8.775139,-10.1917 h 14.102902 v -7.96031 H 55.927001 c -9.226431,0 -16.735443,8.14835 -16.735443,18.16454 v 136.3782 c 0,10.78088 7.433796,16.87334 14.341084,17.9765 0.814834,0.12535 1.65474,0.20057 2.494647,0.20057 6.180205,0 12.899454,-3.54766 15.682426,-12.09716 L 116.22474,153.32325 c 1.93053,-5.91695 0.95273,-12.38548 -2.63254,-17.32463 z"
     id="path205"
     style="fill:url(#Gradiente_sem_nome_253);stroke-width:1.25359" />
  <g
     id="g217"
     transform="matrix(1.2535913,0,0,1.2535913,-48.710261,-65.917322)">
    <path
       d="m 243.2,143.42 c 0,-1.79 -0.46,-3.33 -1.38,-4.6 -0.92,-1.27 -2.3,-2.37 -4.14,-3.29 -1.84,-0.92 -4.15,-1.7 -6.93,-2.33 -2.78,-0.64 -6.04,-1.21 -9.77,-1.73 l -17.12,-2.83 c -7.12,-1.08 -13.13,-2.61 -18.01,-4.56 -4.88,-1.96 -8.83,-4.28 -11.85,-6.97 -3.02,-2.69 -5.19,-5.7 -6.51,-9.02 -1.32,-3.33 -1.98,-6.95 -1.98,-10.86 0,-5.14 1.13,-9.59 3.4,-13.34 2.26,-3.75 5.47,-6.85 9.62,-9.31 4.15,-2.45 9.15,-4.26 15,-5.41 5.85,-1.16 12.36,-1.73 19.53,-1.73 5.09,0 9.92,0.27 14.47,0.81 4.55,0.54 8.9,1.36 13.06,2.44 4.15,1.09 8.15,2.43 11.99,4.03 3.84,1.6 7.63,3.44 11.36,5.52 L 255.8,96.8 c -3.59,-2.12 -7.29,-3.83 -11.11,-5.13 -3.82,-1.3 -7.58,-2.3 -11.29,-3.01 -3.7,-0.71 -7.23,-1.18 -10.58,-1.42 -3.35,-0.24 -6.37,-0.35 -9.06,-0.35 -3.35,0 -6.4,0.17 -9.16,0.5 -2.76,0.33 -5.13,0.91 -7.11,1.73 -1.98,0.83 -3.51,1.92 -4.6,3.29 -1.09,1.37 -1.63,3.09 -1.63,5.17 0,2.08 0.45,3.59 1.34,4.81 0.9,1.23 2.11,2.23 3.64,3.01 1.53,0.78 3.31,1.38 5.34,1.8 2.03,0.42 4.17,0.8 6.44,1.13 l 24.77,4.46 c 6.42,0.99 11.98,2.25 16.7,3.79 4.72,1.53 8.62,3.47 11.71,5.8 3.09,2.34 5.38,5.13 6.86,8.39 1.49,3.25 2.23,7.08 2.23,11.46 0,3.96 -0.61,7.52 -1.84,10.69 -1.23,3.16 -2.94,5.94 -5.13,8.35 -2.19,2.41 -4.81,4.47 -7.85,6.19 -3.04,1.72 -6.4,3.13 -10.08,4.21 -3.68,1.08 -7.62,1.89 -11.82,2.41 -4.2,0.52 -8.52,0.78 -12.95,0.78 -6.46,0 -12.64,-0.58 -18.54,-1.73 -5.9,-1.16 -11.37,-2.59 -16.42,-4.32 -5.05,-1.72 -9.59,-3.58 -13.62,-5.59 -4.03,-2 -7.4,-3.86 -10.08,-5.56 l 10.61,-17.27 c 2.69,1.75 5.86,3.47 9.52,5.17 3.66,1.7 7.54,3.21 11.64,4.53 4.1,1.32 8.31,2.4 12.63,3.22 4.32,0.83 8.48,1.24 12.49,1.24 8.26,0 14.38,-0.94 18.36,-2.83 3.99,-1.89 5.98,-4.65 5.98,-8.28 z"
       id="path207" />
    <path
       d="M 275.41,171.8 V 70.47 h 55.62 c 4.39,0 8.7,0.17 12.95,0.5 4.25,0.33 8.25,0.96 12.03,1.88 3.77,0.92 7.25,2.17 10.44,3.75 3.18,1.58 5.93,3.61 8.24,6.09 2.31,2.48 4.12,5.46 5.41,8.95 1.3,3.49 1.95,7.6 1.95,12.31 0,6.32 -1.1,11.72 -3.29,16.2 -2.19,4.48 -5.26,8.16 -9.2,11.04 -3.94,2.88 -8.66,4.99 -14.15,6.33 -5.5,1.34 -11.55,2.02 -18.15,2.02 h -35.67 v 32.27 h -26.18 z m 59.09,-51.59 c 2.83,0 5.45,-0.29 7.85,-0.88 2.41,-0.59 4.48,-1.52 6.23,-2.8 1.74,-1.27 3.1,-2.91 4.07,-4.92 0.97,-2 1.45,-4.45 1.45,-7.32 0,-2.87 -0.48,-5.18 -1.45,-7.04 -0.97,-1.86 -2.32,-3.34 -4.07,-4.42 -1.75,-1.08 -3.83,-1.85 -6.26,-2.3 -2.43,-0.45 -5.08,-0.67 -7.96,-0.67 H 301.6 v 30.36 h 32.91 z"
       id="path209" />
    <path
       d="M 387.51,171.8 V 70.47 h 98.72 v 19.81 h -72.11 v 21.02 h 62.13 v 18.4 h -62.13 v 22.22 H 488 V 171.8 H 387.52 Z"
       id="path211" />
    <path
       d="M 496.5,171.8 V 70.47 h 98.72 v 19.81 h -72.11 v 21.02 h 62.13 v 18.4 h -62.13 v 22.22 h 73.88 V 171.8 H 496.51 Z"
       id="path213" />
    <path
       d="M 605.49,171.8 V 70.47 h 53 c 9.81,0 18.88,1.03 27.21,3.08 8.33,2.05 15.52,5.14 21.58,9.27 6.06,4.13 10.8,9.32 14.22,15.57 3.42,6.25 5.13,13.55 5.13,21.9 0,6.32 -0.81,11.99 -2.44,17.02 -1.63,5.02 -3.93,9.45 -6.9,13.27 -2.97,3.82 -6.57,7.08 -10.79,9.77 -4.22,2.69 -8.93,4.88 -14.12,6.58 -5.19,1.7 -10.79,2.94 -16.81,3.72 -6.02,0.78 -12.33,1.17 -18.93,1.17 h -51.16 z m 54.2,-19.89 c 6.04,0 11.47,-0.62 16.31,-1.88 4.83,-1.25 8.94,-3.15 12.31,-5.7 3.37,-2.55 5.97,-5.73 7.78,-9.55 1.82,-3.82 2.72,-8.28 2.72,-13.37 0,-5.09 -0.87,-9.65 -2.62,-13.52 -1.75,-3.87 -4.25,-7.1 -7.5,-9.69 -3.26,-2.59 -7.22,-4.55 -11.89,-5.87 -4.67,-1.32 -9.93,-1.98 -15.78,-1.98 h -29.23 v 61.56 h 27.88 z"
       id="path215" />
  </g>
  <g
     id="g231"
     transform="matrix(1.2535913,0,0,1.2535913,-48.710261,-65.917322)">
    <path
       d="m 202.21,222.31 c 0,-1.24 -0.26,-2.31 -0.78,-3.2 -0.52,-0.89 -1.32,-1.65 -2.39,-2.29 -1.07,-0.63 -2.43,-1.16 -4.08,-1.58 -1.65,-0.42 -3.62,-0.8 -5.9,-1.14 l -7.93,-1.32 c -3.32,-0.52 -6.11,-1.2 -8.35,-2.03 -2.25,-0.84 -4.05,-1.83 -5.41,-2.98 -1.36,-1.15 -2.32,-2.47 -2.9,-3.95 -0.58,-1.48 -0.86,-3.12 -0.86,-4.93 0,-2.49 0.54,-4.59 1.63,-6.32 1.08,-1.73 2.58,-3.13 4.47,-4.2 1.9,-1.07 4.13,-1.85 6.69,-2.34 2.56,-0.49 5.31,-0.73 8.25,-0.73 4.29,0 8.28,0.47 11.96,1.42 3.68,0.95 7.2,2.44 10.54,4.47 l -2.64,5.12 c -1.72,-1.11 -3.47,-1.99 -5.27,-2.66 -1.8,-0.67 -3.56,-1.17 -5.29,-1.52 -1.73,-0.35 -3.37,-0.58 -4.93,-0.68 -1.56,-0.1 -2.96,-0.15 -4.2,-0.15 -2.15,0 -4.06,0.13 -5.74,0.39 -1.68,0.26 -3.11,0.69 -4.29,1.29 -1.18,0.6 -2.07,1.38 -2.69,2.36 -0.62,0.97 -0.93,2.17 -0.93,3.59 0,1.51 0.33,2.72 0.98,3.63 0.65,0.9 1.51,1.62 2.56,2.14 1.05,0.52 2.23,0.9 3.54,1.15 1.31,0.25 2.62,0.47 3.93,0.68 l 10.71,1.93 c 2.91,0.45 5.46,1.02 7.63,1.71 2.17,0.69 3.96,1.56 5.39,2.61 1.42,1.05 2.49,2.32 3.19,3.81 0.7,1.49 1.05,3.28 1.05,5.35 0,1.85 -0.28,3.5 -0.85,4.93 -0.56,1.44 -1.36,2.7 -2.37,3.8 -1.02,1.1 -2.23,2.02 -3.63,2.78 -1.4,0.76 -2.94,1.37 -4.61,1.83 -1.67,0.46 -3.46,0.8 -5.35,1.02 -1.89,0.22 -3.84,0.32 -5.83,0.32 -2.82,0 -5.51,-0.25 -8.07,-0.76 -2.55,-0.51 -4.92,-1.15 -7.1,-1.92 -2.18,-0.77 -4.14,-1.62 -5.88,-2.54 -1.74,-0.93 -3.2,-1.8 -4.37,-2.61 l 3.52,-5.19 c 1.29,0.93 2.77,1.8 4.44,2.63 1.67,0.83 3.44,1.55 5.32,2.17 1.88,0.62 3.81,1.11 5.81,1.47 2,0.36 3.97,0.54 5.91,0.54 5.17,0 8.99,-0.67 11.44,-2 2.45,-1.33 3.68,-3.37 3.68,-6.1 z"
       id="path219" />
    <path
       d="m 282.48,235.22 v -17.56 l -22.94,-30.98 h 8.91 l 18.03,25.79 18.06,-25.79 h 8.71 l -22.94,30.98 v 17.56 z"
       id="path221" />
    <path
       d="m 400.27,222.31 c 0,-1.24 -0.26,-2.31 -0.78,-3.2 -0.52,-0.89 -1.32,-1.65 -2.39,-2.29 -1.07,-0.63 -2.44,-1.16 -4.08,-1.58 -1.65,-0.42 -3.62,-0.8 -5.9,-1.14 l -7.93,-1.32 c -3.32,-0.52 -6.11,-1.2 -8.35,-2.03 -2.25,-0.84 -4.05,-1.83 -5.41,-2.98 -1.36,-1.15 -2.32,-2.47 -2.9,-3.95 -0.58,-1.48 -0.86,-3.12 -0.86,-4.93 0,-2.49 0.54,-4.59 1.63,-6.32 1.08,-1.73 2.58,-3.13 4.47,-4.2 1.9,-1.07 4.13,-1.85 6.69,-2.34 2.56,-0.49 5.31,-0.73 8.25,-0.73 4.29,0 8.28,0.47 11.96,1.42 3.68,0.95 7.2,2.44 10.54,4.47 l -2.64,5.12 c -1.72,-1.11 -3.47,-1.99 -5.27,-2.66 -1.8,-0.67 -3.56,-1.17 -5.29,-1.52 -1.73,-0.35 -3.37,-0.58 -4.93,-0.68 -1.56,-0.1 -2.96,-0.15 -4.2,-0.15 -2.15,0 -4.06,0.13 -5.74,0.39 -1.68,0.26 -3.11,0.69 -4.29,1.29 -1.18,0.6 -2.07,1.38 -2.69,2.36 -0.62,0.97 -0.93,2.17 -0.93,3.59 0,1.51 0.33,2.72 0.98,3.63 0.65,0.9 1.51,1.62 2.56,2.14 1.05,0.52 2.23,0.9 3.54,1.15 1.31,0.25 2.62,0.47 3.93,0.68 l 10.71,1.93 c 2.91,0.45 5.46,1.02 7.62,1.71 2.17,0.69 3.97,1.56 5.39,2.61 1.42,1.05 2.49,2.32 3.19,3.81 0.7,1.49 1.05,3.28 1.05,5.35 0,1.85 -0.28,3.5 -0.85,4.93 -0.57,1.44 -1.36,2.7 -2.37,3.8 -1.02,1.1 -2.23,2.02 -3.63,2.78 -1.4,0.76 -2.94,1.37 -4.61,1.83 -1.67,0.46 -3.46,0.8 -5.35,1.02 -1.9,0.21 -3.84,0.32 -5.83,0.32 -2.82,0 -5.51,-0.25 -8.07,-0.76 -2.55,-0.51 -4.92,-1.15 -7.1,-1.92 -2.18,-0.77 -4.14,-1.62 -5.88,-2.54 -1.74,-0.93 -3.2,-1.8 -4.37,-2.61 l 3.52,-5.19 c 1.29,0.93 2.77,1.8 4.44,2.63 1.67,0.83 3.44,1.55 5.32,2.17 1.88,0.62 3.81,1.11 5.81,1.47 2,0.36 3.97,0.54 5.91,0.54 5.17,0 8.99,-0.67 11.44,-2 2.45,-1.33 3.68,-3.37 3.68,-6.1 z"
       id="path223" />
    <path
       d="m 479.4,235.22 v -42.36 h -21.38 v -6.17 h 50.4 v 6.17 H 487.1 v 42.36 h -7.69 z"
       id="path225" />
    <path
       d="m 563.4,235.22 v -48.53 h 43.11 v 6.03 h -35.38 v 14.98 h 30.26 v 5.73 h -30.26 v 15.73 h 35.92 v 6.07 H 563.4 Z"
       id="path227" />
    <path
       d="m 720.03,235.22 v -35.48 l 0.14,-5.8 -2.41,5.8 -18.33,35.48 h -6.88 l -18.3,-35.45 -2.51,-6.07 0.2,6.07 v 35.45 h -6.81 v -48.53 h 10.03 l 18.88,37.25 2.2,5.79 2.13,-5.79 18.88,-37.25 h 10 v 48.53 z"
       id="path229" />
  </g>
  <g
     id="g283"
     transform="matrix(1.3803736,0,0,1.3803736,-104.91603,-100.27786)">
    <path
       d="m 173.75,264.45 v 1.84 h -11.9 v -14.8 h 11.57 v 1.84 h -9.23 v 4.55 h 8.22 v 1.8 h -8.22 v 4.78 h 9.56 z"
       id="path233" />
    <path
       d="m 181.28,258.89 c 0,-4.38 3.7,-7.57 8.69,-7.57 2.53,0 4.73,0.78 6.23,2.31 l -1.52,1.33 c -1.27,-1.21 -2.81,-1.75 -4.61,-1.75 -3.7,0 -6.44,2.41 -6.44,5.69 0,3.28 2.74,5.69 6.44,5.69 1.8,0 3.35,-0.57 4.61,-1.78 l 1.52,1.33 c -1.5,1.52 -3.7,2.33 -6.25,2.33 -4.97,0 -8.67,-3.19 -8.67,-7.57 z"
       id="path235" />
    <path
       d="m 203.02,258.89 c 0,-4.33 3.7,-7.57 8.74,-7.57 5.04,0 8.69,3.21 8.69,7.57 0,4.36 -3.7,7.57 -8.69,7.57 -4.99,0 -8.74,-3.24 -8.74,-7.57 z m 15.08,0 c 0,-3.28 -2.72,-5.69 -6.35,-5.69 -3.63,0 -6.39,2.41 -6.39,5.69 0,3.28 2.72,5.69 6.39,5.69 3.67,0 6.35,-2.41 6.35,-5.69 z"
       id="path237" />
    <path
       d="m 227.68,264.6 0.87,-1.65 c 1.22,0.99 3.3,1.71 5.41,1.71 2.83,0 4.05,-0.99 4.05,-2.28 0,-3.62 -9.93,-1.33 -9.93,-6.83 0,-2.28 1.97,-4.23 6.28,-4.23 1.92,0 3.91,0.47 5.27,1.31 l -0.77,1.69 c -1.43,-0.83 -3.04,-1.21 -4.5,-1.21 -2.79,0 -3.98,1.06 -3.98,2.35 0,3.62 9.93,1.35 9.93,6.79 0,2.26 -2.01,4.21 -6.35,4.21 -2.51,0 -4.97,-0.76 -6.28,-1.86 z"
       id="path239" />
    <path
       d="m 247.37,264.6 0.87,-1.65 c 1.22,0.99 3.3,1.71 5.41,1.71 2.83,0 4.05,-0.99 4.05,-2.28 0,-3.62 -9.93,-1.33 -9.93,-6.83 0,-2.28 1.97,-4.23 6.28,-4.23 1.92,0 3.91,0.47 5.27,1.31 l -0.77,1.69 c -1.43,-0.83 -3.04,-1.21 -4.5,-1.21 -2.79,0 -3.98,1.06 -3.98,2.35 0,3.62 9.93,1.35 9.93,6.79 0,2.26 -2.01,4.21 -6.35,4.21 -2.51,0 -4.97,-0.76 -6.28,-1.86 z"
       id="path241" />
    <path
       d="m 268.56,251.49 h 2.34 v 14.8 h -2.34 z"
       id="path243" />
    <path
       d="m 279.48,264.6 0.87,-1.65 c 1.22,0.99 3.3,1.71 5.41,1.71 2.83,0 4.05,-0.99 4.05,-2.28 0,-3.62 -9.93,-1.33 -9.93,-6.83 0,-2.28 1.97,-4.23 6.28,-4.23 1.92,0 3.91,0.47 5.27,1.31 l -0.77,1.69 c -1.43,-0.83 -3.04,-1.21 -4.5,-1.21 -2.79,0 -3.98,1.06 -3.98,2.35 0,3.62 9.93,1.35 9.93,6.79 0,2.26 -2.01,4.21 -6.35,4.21 -2.51,0 -4.97,-0.76 -6.28,-1.86 z"
       id="path245" />
    <path
       d="m 303.69,253.33 h -5.62 v -1.84 h 13.56 v 1.84 h -5.62 v 12.96 h -2.32 z"
       id="path247" />
    <path
       d="m 331.23,264.45 v 1.84 h -11.9 v -14.8 h 11.57 v 1.84 h -9.23 v 4.55 h 8.22 v 1.8 h -8.22 v 4.78 h 9.56 z"
       id="path249" />
    <path
       d="m 355.38,266.29 -0.02,-10.79 -5.93,8.99 h -1.08 l -5.93,-8.92 v 10.72 h -2.25 v -14.8 h 1.92 l 6.84,10.4 6.75,-10.4 h 1.92 l 0.02,14.8 h -2.25 z"
       id="path251" />
    <path
       d="m 378.14,262.59 h -8.71 l -1.8,3.7 h -2.41 l 7.42,-14.8 h 2.32 l 7.45,14.8 h -2.46 l -1.8,-3.7 z m -0.82,-1.69 -3.54,-7.25 -3.54,7.25 h 7.07 z"
       id="path253" />
    <path
       d="m 401.44,251.49 h 6.91 c 5.27,0 8.85,3 8.85,7.4 0,4.4 -3.58,7.4 -8.85,7.4 h -6.91 z m 6.77,12.96 c 4.05,0 6.65,-2.24 6.65,-5.56 0,-3.32 -2.6,-5.56 -6.65,-5.56 h -4.43 v 11.12 z"
       id="path255" />
    <path
       d="m 437.83,264.45 v 1.84 h -11.9 v -14.8 h 11.57 v 1.84 h -9.23 v 4.55 h 8.22 v 1.8 h -8.22 v 4.78 h 9.56 z"
       id="path257" />
    <path
       d="m 456.73,264.6 0.87,-1.65 c 1.22,0.99 3.3,1.71 5.41,1.71 2.83,0 4.05,-0.99 4.05,-2.28 0,-3.62 -9.93,-1.33 -9.93,-6.83 0,-2.28 1.97,-4.23 6.28,-4.23 1.92,0 3.91,0.47 5.27,1.31 l -0.77,1.69 c -1.43,-0.83 -3.04,-1.21 -4.5,-1.21 -2.79,0 -3.98,1.06 -3.98,2.35 0,3.62 9.93,1.35 9.93,6.79 0,2.26 -2.01,4.21 -6.35,4.21 -2.51,0 -4.97,-0.76 -6.28,-1.86 z"
       id="path259" />
    <path
       d="m 476.59,258.89 c 0,-4.33 3.7,-7.57 8.74,-7.57 5.04,0 8.69,3.21 8.69,7.57 0,4.36 -3.7,7.57 -8.69,7.57 -4.99,0 -8.74,-3.24 -8.74,-7.57 z m 15.08,0 c 0,-3.28 -2.72,-5.69 -6.35,-5.69 -3.63,0 -6.39,2.41 -6.39,5.69 0,3.28 2.72,5.69 6.39,5.69 3.67,0 6.35,-2.41 6.35,-5.69 z"
       id="path261" />
    <path
       d="m 502.75,251.49 h 2.34 v 12.96 h 8.88 v 1.84 h -11.22 z"
       id="path263" />
    <path
       d="m 521.39,259.91 v -8.42 h 2.34 v 8.33 c 0,3.28 1.66,4.76 4.61,4.76 2.95,0 4.64,-1.48 4.64,-4.76 v -8.33 h 2.27 v 8.42 c 0,4.29 -2.6,6.56 -6.93,6.56 -4.33,0 -6.93,-2.26 -6.93,-6.56 z"
       id="path265" />
    <path
       d="m 557.27,262.8 1.52,1.33 c -1.48,1.48 -3.61,2.28 -6.09,2.33 l -0.26,0.89 c 1.36,0.13 2.04,0.82 2.04,1.75 0,1.18 -1.15,1.92 -2.9,1.92 -0.82,0 -1.5,-0.15 -2.08,-0.46 l 0.49,-1.04 c 0.49,0.25 1.01,0.36 1.59,0.36 0.89,0 1.31,-0.32 1.31,-0.85 0,-0.49 -0.4,-0.82 -1.33,-0.82 h -0.63 l 0.51,-1.82 c -4.4,-0.42 -7.57,-3.47 -7.57,-7.51 0,-4.38 3.7,-7.57 8.69,-7.57 2.53,0 4.73,0.78 6.23,2.31 l -1.52,1.33 c -1.26,-1.21 -2.81,-1.75 -4.61,-1.75 -3.7,0 -6.44,2.41 -6.44,5.69 0,3.28 2.74,5.69 6.44,5.69 1.8,0 3.35,-0.57 4.61,-1.78 z"
       id="path267" />
    <path
       d="m 565.6,258.89 c 0,-4.33 3.7,-7.57 8.74,-7.57 5.04,0 8.69,3.21 8.69,7.57 0,4.36 -3.7,7.57 -8.69,7.57 -4.99,0 -8.74,-3.24 -8.74,-7.57 z m 15.09,0 c 0,-3.28 -2.72,-5.69 -6.35,-5.69 -3.63,0 -6.39,2.41 -6.39,5.69 0,3.28 2.72,5.69 6.39,5.69 3.67,0 6.35,-2.41 6.35,-5.69 z m -7.83,-10.09 c -0.68,0 -1.15,0.49 -1.19,1.31 h -1.26 c 0.05,-1.57 0.94,-2.58 2.3,-2.58 1.5,0 2.25,1.44 3.11,1.44 0.68,0 1.15,-0.49 1.2,-1.27 h 1.26 c -0.05,1.5 -0.94,2.52 -2.3,2.52 -1.5,0 -2.25,-1.42 -3.12,-1.42 z"
       id="path269" />
    <path
       d="m 603.66,264.45 v 1.84 h -11.9 v -14.8 h 11.57 v 1.84 h -9.23 v 4.55 h 8.22 v 1.8 h -8.22 v 4.78 h 9.56 z"
       id="path271" />
    <path
       d="m 611.11,264.6 0.87,-1.65 c 1.22,0.99 3.3,1.71 5.41,1.71 2.83,0 4.05,-0.99 4.05,-2.28 0,-3.62 -9.93,-1.33 -9.93,-6.83 0,-2.28 1.97,-4.23 6.28,-4.23 1.92,0 3.91,0.47 5.27,1.31 l -0.77,1.69 c -1.43,-0.83 -3.04,-1.21 -4.5,-1.21 -2.79,0 -3.98,1.06 -3.98,2.35 0,3.62 9.93,1.35 9.93,6.79 0,2.26 -2.01,4.21 -6.35,4.21 -2.51,0 -4.97,-0.76 -6.28,-1.86 z"
       id="path273" />
    <path
       d="m 655.65,264.45 v 1.84 h -11.9 v -14.8 h 11.57 v 1.84 h -9.23 v 4.55 h 8.22 v 1.8 h -8.22 v 4.78 h 9.56 z"
       id="path275" />
    <path
       d="m 679.79,266.29 -0.02,-10.79 -5.93,8.99 h -1.08 l -5.93,-8.92 v 10.72 h -2.25 v -14.8 h 1.92 l 6.84,10.4 6.75,-10.4 h 1.92 l 0.02,14.8 h -2.25 z"
       id="path277" />
    <path
       d="m 706.82,253.33 h -5.62 v -1.84 h 13.56 v 1.84 h -5.62 v 12.96 h -2.32 z"
       id="path279" />
    <path
       d="m 722.46,251.49 h 2.34 v 14.8 h -2.34 z"
       id="path281" />
  </g>
  <path
     style="fill:#ffffff;stroke-width:0.611042"
     d="m 219.23154,152.72813 c -18.05958,-1.53368 -36.25504,-6.67448 -52.8339,-14.92727 -5.22079,-2.59886 -9.95345,-5.09116 -10.51699,-5.53846 -0.92965,-0.73786 -0.42759,-1.78589 5.41597,-11.30539 l 6.44061,-10.49215 2.89877,1.78364 c 11.09293,6.82554 30.69169,13.39114 45.55995,15.26262 7.17544,0.90317 20.80048,0.4205 26.42718,-0.93619 9.34746,-2.25384 13.57643,-6.16011 13.57643,-12.54047 0,-3.67291 -1.04524,-5.94986 -3.79247,-8.2615 -4.2681,-3.59138 -7.99465,-4.55297 -35.3142,-9.112508 C 195.0642,92.983932 188.83361,91.418008 180.73591,87.5229 168.32197,81.551606 162.29249,74.575182 159.93621,63.456517 157.16096,50.360845 161.4338,38.152635 171.4488,30.563121 182.00316,22.564893 196.5122,19.094574 219.23154,19.1343 c 21.87263,0.03825 38.48648,3.744876 56.32741,12.566935 l 6.22199,3.076676 -4.91602,9.839993 c -2.7038,5.411995 -4.99404,9.92611 -5.08943,10.031363 -0.0954,0.105251 -2.33288,-0.892556 -4.97223,-2.217358 -9.84524,-4.941762 -22.96197,-8.198561 -37.50774,-9.312937 -20.44111,-1.566029 -34.24187,1.457853 -37.28949,8.170486 -2.08774,4.598424 -1.26595,10.108851 1.9489,13.068015 0.80366,0.739757 2.69514,1.888285 4.20328,2.5523 3.14484,1.384629 4.58057,1.677079 35.02791,7.134827 12.38004,2.219145 24.62894,4.669301 27.21977,5.444773 19.79679,5.925437 28.33362,14.858491 29.21406,30.569997 1.02463,18.28443 -9.65036,32.19387 -29.44862,38.37133 -11.83592,3.69304 -28.03447,5.3934 -40.93979,4.29743 z"
     id="path530" />
  <path
     style="fill:#ffffff;stroke-width:0.611042"
     d="M 297.13935,86.196099 V 22.917314 l 44.75881,0.246406 c 48.60844,0.267599 48.99989,0.292825 60.03485,3.86899 14.92813,4.837846 24.18204,14.106186 26.90242,26.944382 1.16232,5.485245 1.1335,15.580704 -0.0612,21.434737 -2.9214,14.315009 -14.14559,25.706361 -29.60764,30.048581 -9.41363,2.64365 -15.20938,3.05163 -43.52,3.06348 l -26.73307,0.0113 v 20.4699 20.46989 h -15.88705 -15.88709 z m 78.84041,-1.528053 c 6.5188,-0.815123 11.45121,-2.981115 14.622,-6.421032 3.13905,-3.405456 4.31968,-6.297253 4.73539,-11.598653 0.5002,-6.378485 -0.92743,-10.770733 -4.68236,-14.405917 -5.44341,-5.269813 -10.50004,-6.02242 -40.50757,-6.028974 l -21.23369,-0.0046 v 19.553303 19.553328 h 20.94421 c 11.51931,0 23.27423,-0.291347 26.12202,-0.647455 z"
     id="path532" />
  <path
     style="fill:#ffffff;stroke-width:0.611042"
     d="M 437.06792,85.926539 V 22.989248 h 61.71521 61.71521 v 11.915313 11.915313 h -45.21709 -45.21708 v 13.442919 13.442911 h 39.10667 39.10667 V 85.009988 96.31426 h -39.10667 -39.10667 v 14.35947 14.35948 h 46.43916 46.43918 v 11.91532 11.91531 H 500.0052 437.06792 Z"
     id="path534" />
  <path
     style="fill:#ffffff;stroke-width:0.611042"
     d="M 573.94125,85.926539 V 22.989248 h 61.71522 61.71521 V 34.904561 46.819874 H 652.15459 606.9375 v 13.442919 13.442911 h 38.80116 38.80115 V 85.009988 96.31426 H 645.73866 606.9375 v 14.35947 14.35948 h 46.13365 46.13365 v 11.91532 11.91531 h -62.63177 -62.63178 z"
     id="path536" />
  <path
     style="fill:#ffffff;stroke-width:0.611042"
     d="M 710.8146,86.307969 V 22.989248 h 38.51971 c 22.93508,0 40.92037,0.2615 44.45329,0.646336 35.54704,3.872098 59.18673,20.107998 66.23015,45.487316 1.17603,4.237565 1.35687,6.39324 1.35838,16.192601 10e-4,8.567607 -0.24749,12.300902 -1.02773,15.421049 -6.88252,27.52262 -27.40677,42.49463 -64.79762,47.26848 -5.72257,0.73061 -16.35849,1.02734 -46.0878,1.28573 l -38.64838,0.33592 z m 82.54168,37.284491 c 2.8847,-0.5358 7.2388,-1.64878 9.67579,-2.47328 15.72865,-5.32137 24.51467,-17.8854 24.4809,-35.007736 -0.0303,-15.402024 -6.60708,-26.850062 -18.99718,-33.068335 -10.13611,-5.087062 -18.5667,-6.198362 -47.13748,-6.213563 l -18.17849,-0.0097 v 39.18156 39.181574 l 22.45578,-0.30818 c 16.85474,-0.23132 23.76399,-0.55117 27.70068,-1.28238 z"
     id="path538" />
  <path
     style="fill:#ffffff;stroke-width:0.611042"
     d="m 175.23654,229.23602 c -5.59472,-1.28977 -12.42045,-3.87396 -16.58595,-6.27937 l -3.75408,-2.16784 2.11694,-2.94661 2.11692,-2.94662 2.37891,1.50174 c 7.89039,4.98099 20.38941,7.62101 30.45314,6.43226 9.17428,-1.08369 12.90289,-4.03533 12.90735,-10.21776 0.005,-6.26537 -3.42406,-8.1995 -19.24552,-10.85676 -16.66583,-2.79908 -21.86553,-4.62445 -25.59955,-8.98682 -5.07841,-5.93298 -4.18515,-15.61569 1.90394,-20.63811 8.23988,-6.79646 29.0407,-7.28369 43.20244,-1.01199 5.35781,2.37279 5.4291,2.47186 3.92507,5.45514 -0.7035,1.39542 -1.33939,2.6083 -1.41307,2.69529 -0.0737,0.087 -1.89593,-0.6358 -4.04943,-1.60622 -5.97192,-2.69106 -11.67968,-3.7458 -20.27053,-3.7458 -9.303,0 -12.97944,0.93855 -15.6671,3.99963 -1.61703,1.84169 -1.89064,2.63351 -1.89064,5.47151 0,2.7884 0.2823,3.63972 1.76797,5.3318 2.34338,2.66898 3.58241,3.04724 19.38492,5.91808 16.20809,2.94452 19.70045,4.12178 23.53417,7.93331 2.33587,2.32236 2.95825,3.43152 3.56041,6.34513 1.85702,8.98543 -2.94056,16.30892 -12.75503,19.47051 -5.18185,1.66925 -20.3214,2.16351 -26.02128,0.8495 z"
     id="path540" />
  <path
     style="fill:#ffffff;stroke-width:0.611042"
     d="m 305.67373,217.75879 -0.0202,-11.1515 -14.03375,-18.91876 c -7.71856,-10.40531 -14.03374,-18.99809 -14.03374,-19.09506 0,-0.0969 2.26848,-0.17287 5.04109,-0.16868 l 5.04109,0.008 11.30427,16.2103 c 10.95476,15.70909 11.33562,16.17178 12.3176,14.96437 0.55734,-0.68526 5.72661,-7.98332 11.48729,-16.21791 l 10.47395,-14.97198 h 4.89415 c 3.7435,0 4.79031,0.17957 4.45249,0.7638 -0.24292,0.42009 -6.58342,9.06193 -14.09003,19.20407 l -13.64836,18.44027 v 11.04249 11.0425 h -4.58281 -4.58281 l -0.0202,-11.15151 z"
     id="path542" />
  <path
     style="fill:#ffffff;stroke-width:0.611042"
     d="m 421.19372,228.57621 c -5.65999,-1.46199 -15.92401,-5.86036 -17.16493,-7.35559 -0.44511,-0.53631 -0.0775,-1.52525 1.28584,-3.45947 l 1.90911,-2.70848 5.29818,2.66513 c 7.58155,3.81374 13.50296,5.21981 22.10182,5.24815 11.24259,0.0371 16.93639,-2.31845 18.35704,-7.59431 1.32591,-4.92408 -0.98581,-8.80921 -6.46045,-10.85754 -1.8308,-0.68499 -8.21242,-2.06894 -14.18136,-3.07546 -12.59879,-2.12446 -15.77948,-2.9966 -20.17022,-5.53059 -5.45488,-3.14815 -7.81335,-8.54738 -6.78092,-15.52351 0.88291,-5.96573 6.56866,-10.83677 14.77608,-12.65879 5.8847,-1.30639 19.14249,-0.9782 25.11216,0.62164 5.30231,1.421 13.1783,4.818 13.1783,5.68396 0,0.64768 -2.36951,5.38458 -2.6935,5.38458 -0.12348,0 -1.99979,-0.83076 -4.1696,-1.84613 -6.15506,-2.88031 -11.64925,-3.78125 -21.55033,-3.53381 -7.46414,0.18653 -8.88868,0.3904 -11.17549,1.59942 -6.72278,3.55427 -6.69955,12.42864 0.0402,15.38229 1.41934,0.62202 8.21747,2.14738 15.10697,3.38969 20.10114,3.62462 24.48086,5.49664 27.30817,11.67232 3.49221,7.62797 0.1038,16.62809 -7.79869,20.71463 -7.02781,3.63423 -21.969,4.45775 -32.32846,1.78187 z"
     id="path544" />
  <path
     style="fill:#ffffff;stroke-width:0.611042"
     d="m 552.5548,202.32999 v -26.58032 h -13.44293 -13.44291 v -3.66625 -3.66624 h 31.46865 31.46864 v 3.66624 3.66625 h -13.44291 -13.44292 v 26.58032 26.58031 h -4.58281 -4.58281 z"
     id="path546" />
  <path
     style="fill:#ffffff;stroke-width:0.611042"
     d="m 657.65397,198.66374 v -30.24656 h 26.88584 26.88583 v 3.36073 3.36072 h -22.30302 -22.30303 v 9.77668 9.77665 h 18.9423 18.94229 v 3.36074 3.36073 h -18.94229 -18.9423 v 10.08218 10.0822 h 22.60854 22.60855 v 3.66624 3.66625 h -27.19135 -27.19136 z"
     id="path548" />
  <path
     style="fill:#ffffff;stroke-width:0.611042"
     d="m 785.36169,198.66374 v -30.24656 h 6.09481 6.0948 l 11.77232,23.37234 c 6.47477,12.85479 12.28971,24.74719 12.92208,26.42755 0.63238,1.68036 1.35858,3.28383 1.61378,3.56327 0.2552,0.27943 1.18963,-1.37039 2.07651,-3.66625 0.88686,-2.29587 6.77575,-14.34816 13.0864,-26.78285 l 11.47391,-22.60855 6.23384,-0.17413 6.23385,-0.17414 v 30.26795 30.26793 h -4.27729 -4.27729 v -26.09148 c 0,-14.35031 -0.2309,-25.83026 -0.51311,-25.51098 -0.28221,0.31926 -0.87449,1.54287 -1.31617,2.71912 -0.4417,1.17626 -6.19136,12.64998 -12.77705,25.49716 l -11.974,23.35849 -4.01678,0.0138 -4.01679,0.0138 -11.25926,-21.83239 c -6.19259,-12.00783 -12.08415,-23.76274 -13.09237,-26.12204 l -1.83312,-4.28964 -0.15932,26.12204 -0.15933,26.12203 h -3.96521 -3.96521 z"
     id="path550" />
  <path
     style="fill:#ffffff;stroke-width:0.272211"
     d="m 118.56898,256.99872 v -10.0718 h 7.89413 7.8941 v 1.22496 1.22494 h -6.39696 -6.39694 v 3.26653 3.26653 h 5.71642 5.71642 v 1.08884 1.08885 h -5.71642 -5.71642 v 3.40263 3.40264 h 6.66916 6.66916 v 1.08884 1.08883 h -8.16631 -8.16634 z"
     id="path554" />
  <path
     style="fill:#ffffff;stroke-width:0.272211"
     d="m 153.6534,266.96433 c -3.38233,-0.97724 -5.77358,-2.84603 -7.10476,-5.55238 -0.82239,-1.67199 -0.89444,-2.02824 -0.89169,-4.40909 0.002,-2.31662 0.0868,-2.75623 0.79643,-4.16285 0.8752,-1.73482 2.76224,-3.66107 4.41016,-4.50177 4.23341,-2.15972 10.01704,-1.95238 13.56137,0.4862 l 1.29546,0.89129 -0.84623,0.84625 c -0.84151,0.8415 -0.85044,0.84351 -1.59467,0.35873 -4.02845,-2.624 -9.3182,-2.31659 -12.54543,0.7291 -2.02012,1.9065 -2.76085,5.21899 -1.80832,8.08677 0.64823,1.95164 2.49083,3.78454 4.63844,4.61402 2.42697,0.93737 5.72221,0.90587 7.74191,-0.074 0.82345,-0.39951 1.74216,-0.90679 2.04159,-1.12733 0.49703,-0.36603 0.62062,-0.33234 1.4198,0.38695 l 0.87538,0.78791 -1.0115,0.83431 c -1.67891,1.38483 -3.62543,1.97395 -6.86401,2.07742 -1.83582,0.0587 -3.30737,-0.0385 -4.11393,-0.27151 z"
     id="path556" />
  <path
     style="fill:#ffffff;stroke-width:0.272211"
     d="m 183.69559,266.92213 c -5.22608,-1.40727 -8.59489,-5.81899 -8.14252,-10.66328 0.57953,-6.20605 6.54465,-10.21299 13.85876,-9.30934 4.10571,0.50726 7.89766,3.27699 9.194,6.71553 0.48213,1.27879 0.57003,1.98662 0.48163,3.8781 -0.0931,1.98964 -0.23688,2.55484 -1.02707,4.03442 -1.43584,2.68847 -3.8479,4.49863 -7.17492,5.38446 -1.79098,0.47686 -5.34406,0.45714 -7.18988,-0.0399 z m 5.5192,-2.05365 c 4.38475,-0.81057 6.91849,-3.63992 6.92562,-7.73366 0.009,-4.44438 -3.14857,-7.58585 -7.98956,-7.95197 -5.75013,-0.43487 -10.04075,3.3545 -9.6275,8.50278 0.29797,3.71213 2.86325,6.40885 6.84798,7.19886 1.60071,0.31734 2.05026,0.31548 3.84346,-0.016 z"
     id="path558" />
  <path
     style="fill:#ffffff;stroke-width:0.272211"
     d="m 214.05307,266.93564 c -1.80501,-0.45629 -4.29348,-1.65079 -4.29348,-2.06091 0,-0.15463 0.18221,-0.63353 0.40494,-1.06421 l 0.40494,-0.78308 1.56859,0.77056 c 2.80404,1.37746 6.30884,1.74884 8.99002,0.95262 1.71718,-0.50996 2.51425,-1.42988 2.51425,-2.90181 0,-1.89113 -1.32479,-2.61857 -7.1664,-3.93495 -4.86175,-1.09558 -6.93698,-3.23861 -6.32016,-6.52659 0.28274,-1.50712 2.32782,-3.40072 4.3675,-4.04405 2.25481,-0.71116 6.16925,-0.66324 8.57464,0.10505 2.61061,0.83377 2.66003,0.88279 2.09165,2.07468 -0.36721,0.77006 -0.58025,0.94883 -0.94277,0.79117 -2.13672,-0.92939 -3.37617,-1.19188 -5.64035,-1.19458 -3.76165,-0.004 -5.58033,1.05844 -5.58033,3.2613 0,0.71793 0.1987,1.15998 0.74858,1.66539 0.94985,0.87305 1.69321,1.15193 5.34988,2.00705 3.73063,0.87243 5.39387,1.58408 6.4118,2.74343 1.42287,1.62057 1.44927,4.08217 0.0622,5.80304 -0.43163,0.53552 -1.48418,1.33355 -2.33899,1.7734 -1.40457,0.72272 -1.84749,0.80727 -4.60084,0.87819 -2.0057,0.0516 -3.5793,-0.0562 -4.60568,-0.31564 z"
     id="path560" />
  <path
     style="fill:#ffffff;stroke-width:0.272211"
     d="m 241.74434,267.04324 c -1.59896,-0.35949 -3.43635,-1.07107 -4.27315,-1.65492 l -0.73442,-0.51239 0.54112,-0.91714 0.54112,-0.91712 1.55437,0.76344 c 2.78997,1.37033 6.30011,1.74009 8.97578,0.94551 1.69804,-0.50426 2.51424,-1.43292 2.51424,-2.86062 0,-1.73003 -1.13452,-2.46079 -5.47522,-3.52664 -4.35966,-1.07049 -6.26142,-1.90211 -7.21813,-3.15642 -0.83954,-1.10072 -1.11815,-2.8992 -0.66283,-4.27882 0.4755,-1.44078 2.4003,-3.06937 4.28425,-3.62492 2.2427,-0.66135 6.21415,-0.59383 8.52752,0.14501 2.6106,0.83377 2.66002,0.88278 2.09165,2.07468 -0.36722,0.77006 -0.58026,0.94883 -0.94278,0.79116 -2.13671,-0.92939 -3.37616,-1.19189 -5.64036,-1.19457 -2.71472,-0.003 -4.34507,0.52038 -5.13592,1.6495 -0.44684,0.63795 -0.5846,2.0089 -0.28128,2.79933 0.31044,0.80899 1.93824,1.5165 5.43957,2.36424 5.76462,1.39577 7.64205,2.63688 7.93618,5.24634 0.41176,3.65318 -3.15494,6.19959 -8.59528,6.1365 -1.29666,-0.0151 -2.84757,-0.13749 -3.44643,-0.27215 z"
     id="path562" />
  <path
     style="fill:#ffffff;stroke-width:0.272211"
     d="m 265.83499,256.99872 v -10.0718 h 1.49717 1.49716 v 10.0718 10.07179 h -1.49716 -1.49717 z"
     id="path564" />
  <path
     style="fill:#ffffff;stroke-width:0.272211"
     d="m 285.20279,266.80526 c -1.60196,-0.43285 -3.09707,-1.09248 -4.07602,-1.79829 -0.0725,-0.0522 0.68721,-1.70403 0.90038,-1.95792 0.0344,-0.041 0.60064,0.23229 1.25839,0.60719 3.57303,2.03648 9.74045,1.91713 11.4658,-0.22191 1.04082,-1.29037 0.27245,-3.33897 -1.53569,-4.09446 -0.48342,-0.20199 -2.27326,-0.69421 -3.97742,-1.09382 -5.88525,-1.38003 -7.61501,-2.69935 -7.61501,-5.8081 0,-1.9146 1.12551,-3.59056 3.03527,-4.51965 2.88955,-1.40576 7.58104,-1.46217 10.95676,-0.13168 0.76333,0.30083 1.42011,0.57915 1.4595,0.6185 0.0393,0.0393 -0.11982,0.52982 -0.3539,1.08994 -0.32855,0.78635 -0.53098,0.97421 -0.88825,0.82441 -2.82659,-1.18506 -6.74791,-1.58893 -8.7926,-0.90557 -2.76945,0.92559 -3.42186,3.76024 -1.18381,5.14345 0.50507,0.31215 2.58317,0.97596 4.61801,1.47516 4.23366,1.03862 5.99975,1.84219 6.86256,3.12245 1.81816,2.69783 0.34905,6.26858 -3.08498,7.49824 -2.08818,0.74773 -6.56601,0.82301 -9.04899,0.15211 z"
     id="path566" />
  <path
     style="fill:#ffffff;stroke-width:0.272211"
     d="m 314.28851,258.22367 v -8.84685 h -3.81095 -3.81096 v -1.22494 -1.22496 h 9.25517 9.25516 v 1.22496 1.22494 h -3.94705 -3.94705 v 8.84685 8.84684 h -1.49717 -1.49715 z"
     id="path568" />
  <path
     style="fill:#ffffff;stroke-width:0.272211"
     d="m 336.06536,256.99872 v -10.0718 h 7.89411 7.89411 v 1.22496 1.22494 h -6.39694 -6.39696 v 3.26653 3.26653 h 5.58031 5.58034 v 1.08884 1.08885 h -5.58034 -5.58031 v 3.40263 3.40264 h 6.53306 6.53307 v 1.08884 1.08883 h -8.03023 -8.03022 z"
     id="path570" />
  <path
     style="fill:#ffffff;stroke-width:0.272211"
     d="m 364.64749,256.99872 v -10.0718 l 1.293,0.0124 1.293,0.0124 4.62758,7.08996 c 2.54517,3.89947 4.70764,7.1397 4.80549,7.20049 0.0979,0.0608 2.28399,-3.13551 4.85811,-7.1029 l 4.68023,-7.21341 h 1.19856 1.19858 v 10.0718 10.07179 h -1.36105 -1.36106 v -7.19751 c 0,-3.95864 -0.0984,-7.25833 -0.2187,-7.33268 -0.12023,-0.0744 -2.03316,2.61332 -4.25087,5.97257 -3.57398,5.41366 -4.11367,6.10699 -4.74917,6.10121 -0.63088,-0.005 -1.20714,-0.74591 -4.80012,-6.16545 l -4.08315,-6.15894 -0.0725,7.39041 -0.0725,7.39039 h -1.49278 -1.49279 z"
     id="path572" />
  <path
     style="fill:#ffffff;stroke-width:0.272211"
     d="m 404.52636,256.99872 5.03734,-10.0718 h 1.49572 1.49573 l 5.03732,10.0718 5.03733,10.07179 h -1.49513 -1.49514 l -1.23042,-2.4499 -1.23041,-2.44988 h -6.11928 -6.11928 l -1.23041,2.44988 -1.23042,2.4499 h -1.49513 -1.49515 z m 11.20344,2.10964 c -0.20505,-0.48659 -1.34938,-2.83169 -2.54294,-5.21134 l -2.17009,-4.32666 -2.49663,5.10781 c -1.37315,2.80931 -2.49661,5.1544 -2.49661,5.21133 0,0.057 2.2678,0.10351 5.03954,0.10351 h 5.03956 z"
     id="path576" />
  <path
     style="fill:#ffffff;stroke-width:0.272211"
     d="m 449.30503,256.9696 v -10.10091 l 6.19279,0.12285 c 7.04896,0.13993 8.56187,0.45184 11.24148,2.31772 5.83252,4.06133 5.25427,12.77845 -1.07622,16.22394 -2.39648,1.30434 -3.97636,1.53726 -10.4266,1.53726 h -5.93145 z m 13.72129,7.12066 c 3.2841,-1.28583 4.98489,-4.02148 4.72769,-7.60432 -0.2371,-3.30269 -2.07232,-5.56441 -5.33211,-6.57126 -1.41471,-0.43697 -2.52743,-0.53786 -5.93195,-0.53786 h -4.19061 v 7.78546 7.78544 l 4.55953,-0.11402 c 3.95137,-0.0987 4.77402,-0.19793 6.16745,-0.7435 z"
     id="path578" />
  <path
     style="fill:#ffffff;stroke-width:0.272211"
     d="m 483.05916,256.99872 v -10.0718 h 7.89412 7.8941 v 1.22496 1.22494 h -6.39696 -6.39693 v 3.26653 3.26653 h 5.71641 5.71643 v 1.08884 1.08885 h -5.71643 -5.71641 v 3.40263 3.40264 h 6.66915 6.66915 v 1.08884 1.08883 h -8.16631 -8.16632 z"
     id="path580" />
  <path
     style="fill:#ffffff;stroke-width:0.272211"
     d="m 530.18127,266.92855 c -1.43708,-0.40243 -3.35296,-1.20526 -4.06051,-1.70151 -0.2883,-0.20221 -0.2653,-0.43992 0.12092,-1.24976 0.26229,-0.55004 0.54498,-0.9613 0.62822,-0.9139 1.39216,0.79284 3.53858,1.62404 4.80771,1.86176 2.14652,0.40206 5.20842,0.15378 6.55114,-0.53121 2.26702,-1.15654 2.2871,-3.67264 0.0386,-4.83538 -0.4588,-0.23726 -2.46272,-0.84153 -4.45316,-1.34284 -4.08277,-1.02828 -5.45481,-1.63309 -6.48661,-2.85929 -0.88696,-1.05413 -1.08908,-1.82602 -0.92506,-3.53298 0.24952,-2.59694 2.54409,-4.34931 6.40317,-4.89017 2.76135,-0.387 7.41101,0.36452 8.69621,1.40559 0.40152,0.32525 -0.39946,2.21011 -0.85494,2.01179 -0.15808,-0.0689 -1.12198,-0.39163 -2.14198,-0.71732 -2.52923,-0.80758 -6.36863,-0.68635 -7.88185,0.24887 -1.93799,1.19774 -1.95682,3.60378 -0.037,4.72157 0.46356,0.2699 2.50877,0.9103 4.54489,1.42312 2.03612,0.51283 4.14598,1.14306 4.68859,1.40054 2.30866,1.09553 3.42116,3.18021 2.84299,5.32737 -0.45644,1.69508 -1.28677,2.61703 -3.20941,3.56354 -1.58236,0.779 -2.00887,0.86287 -4.77108,0.93832 -2.10154,0.0575 -3.48417,-0.0434 -4.50087,-0.32811 z"
     id="path582" />
  <path
     style="fill:#ffffff;stroke-width:0.272211"
     d="m 561.40491,266.9592 c -4.39277,-1.26687 -7.30574,-4.19066 -8.11097,-8.14115 -1.41335,-6.9339 5.3975,-12.91044 13.53806,-11.87971 5.41081,0.68509 9.01505,3.8264 9.90327,8.63128 0.80925,4.37763 -1.94425,8.97453 -6.48331,10.82369 -1.53502,0.62534 -2.34742,0.77096 -4.71295,0.84473 -1.84688,0.0576 -3.30966,-0.0412 -4.1341,-0.27884 z m 7.22542,-2.50347 c 1.62967,-0.55528 3.77458,-2.49371 4.56824,-4.12844 0.92967,-1.91488 0.87829,-4.60525 -0.12714,-6.66036 -0.87173,-1.78174 -1.88982,-2.73038 -3.99364,-3.72115 -1.28631,-0.60577 -1.86135,-0.70437 -4.08315,-0.70016 -2.20187,0.004 -2.8084,0.10891 -4.08317,0.70509 -1.99419,0.93258 -3.00665,1.82972 -3.88383,3.44137 -2.57703,4.73487 0.28519,10.31742 5.90012,11.50771 1.44607,0.30655 4.10804,0.0992 5.70261,-0.44406 z"
     id="path584" />
  <path
     style="fill:#ffffff;stroke-width:0.272211"
     d="m 589.22135,256.99872 v -10.0718 h 1.49715 1.49717 v 8.98296 8.98296 h 6.12474 6.12473 v 1.08884 1.08883 h -7.62189 -7.6219 z"
     id="path586" />
  <path
     style="fill:#ffffff;stroke-width:0.272211"
     d="m 620.76246,266.91675 c -1.96152,-0.60396 -3.76469,-1.97859 -4.6301,-3.52968 -1.04122,-1.86626 -1.31139,-4.08275 -1.3178,-10.81178 l -0.006,-5.64837 h 1.49716 1.49716 v 5.95149 c 0,6.5431 0.22492,8.37441 1.21164,9.86545 1.83383,2.77111 7.87345,3.10829 10.30044,0.57508 1.38346,-1.44402 1.55404,-2.51501 1.55404,-9.75708 v -6.63494 h 1.49715 1.49716 v 6.08759 c 0,8.22687 -0.33644,9.77468 -2.6222,12.06345 -0.84541,0.84653 -1.60344,1.28214 -2.9606,1.70133 -2.15743,0.66636 -5.59674,0.72923 -7.51865,0.13748 z"
     id="path588" />
  <path
     style="fill:#ffffff;stroke-width:0.272211"
     d="m 654.48387,273.41593 c -0.50376,-0.13169 -0.60418,-0.55093 -0.26117,-1.09049 0.14504,-0.22815 0.51181,-0.25662 1.22732,-0.0953 1.71051,0.38579 2.91285,-0.12451 2.91285,-1.23639 0,-0.7245 -0.70858,-1.20118 -1.7855,-1.20118 -0.65417,0 -0.71631,-0.08 -0.58138,-0.74858 0.0831,-0.41173 0.22995,-0.95239 0.32636,-1.20148 0.14389,-0.37182 -0.10847,-0.51105 -1.41004,-0.77777 -3.47515,-0.71215 -6.82009,-3.15604 -8.0141,-5.85532 -2.01979,-4.56607 -0.40722,-9.86069 3.80001,-12.47678 2.56272,-1.59351 6.11291,-2.2899 9.19886,-1.8044 1.86608,0.2936 4.56992,1.40867 5.77022,2.37965 l 0.63526,0.51392 -0.99119,0.756 -0.9912,0.75602 -1.04227,-0.68973 c -3.56884,-2.36175 -9.19164,-1.87238 -12.11874,1.05474 -2.85806,2.85805 -2.88732,7.75291 -0.0641,10.70029 2.94403,3.07335 8.99249,3.54044 12.38074,0.9561 l 0.93116,-0.71023 0.83555,0.83555 c 0.65949,0.65951 0.76935,0.91535 0.52133,1.21418 -0.90365,1.08886 -5.03593,2.64794 -7.01821,2.64794 -0.66568,0 -0.90144,0.14048 -1.02793,0.61247 -0.2463,0.91904 -0.23421,0.94021 0.63655,1.11436 2.33889,0.46778 2.60744,3.22794 0.40367,4.14874 -0.8692,0.36317 -3.22403,0.47206 -4.27417,0.19763 z"
     id="path590" />
  <path
     style="fill:#ffffff;stroke-width:0.272211"
     d="m 684.2949,266.92309 c -3.31318,-0.89229 -5.88845,-2.86256 -7.33678,-5.61323 -0.69063,-1.31165 -0.76505,-1.71763 -0.76523,-4.17504 -1.9e-4,-2.42171 0.0828,-2.89106 0.75168,-4.25316 1.82683,-3.71994 6.02821,-6.03474 10.95317,-6.03474 4.99365,0 8.9299,2.1884 10.81036,6.01011 0.81522,1.65675 0.89371,2.03637 0.8835,4.27299 -0.01,2.11315 -0.11637,2.67203 -0.7668,4.01665 -1.87859,3.88331 -6.06182,6.2217 -11.0523,6.17814 -1.12886,-0.01 -2.69376,-0.19063 -3.4776,-0.40172 z m 5.51774,-2.05504 c 4.09323,-0.75667 6.6338,-3.42622 6.88261,-7.23202 0.16058,-2.45637 -0.50937,-4.22585 -2.26454,-5.981 -2.38338,-2.3834 -6.0588,-3.1416 -9.73092,-2.00738 -3.53275,1.09116 -5.64652,3.89707 -5.64027,7.48717 0.007,3.89933 2.46353,6.78714 6.51687,7.66041 1.95448,0.42108 2.31847,0.42734 4.23625,0.0729 z"
     id="path592" />
  <path
     style="fill:#ffffff;stroke-width:0.272211"
     d="m 687.9168,244.06871 c -0.8702,-0.52402 -1.86482,-0.95274 -2.21028,-0.95274 -0.70432,0 -1.48363,0.65364 -1.48363,1.24439 0,0.25061 -0.29036,0.38888 -0.81663,0.38888 -0.9307,0 -0.99046,-0.23194 -0.38728,-1.50304 0.43083,-0.90791 1.76737,-1.76349 2.75482,-1.76349 0.28375,0 1.18395,0.4256 2.00045,0.94576 1.95431,1.24506 3.17523,1.29345 3.60944,0.14308 0.2407,-0.6377 0.47412,-0.81663 1.0652,-0.81663 0.87818,0 0.92533,0.24343 0.30173,1.55755 -0.45059,0.94956 -1.67284,1.70898 -2.75051,1.70898 -0.27563,0 -1.21312,-0.42873 -2.08331,-0.95274 z"
     id="path594" />
  <path
     style="fill:#ffffff;stroke-width:0.272211"
     d="m 711.98839,256.99872 v -10.0718 h 7.89411 7.89411 v 1.22496 1.22494 h -6.39696 -6.39695 v 3.26653 3.26653 h 5.71643 5.71643 v 1.08884 1.08885 h -5.71643 -5.71643 v 3.40263 3.40264 h 6.66917 6.66915 v 1.08884 1.08883 h -8.16631 -8.16632 z"
     id="path596" />
  <path
     style="fill:#ffffff;stroke-width:0.272211"
     d="m 743.29261,266.92581 c -1.82045,-0.50302 -4.35536,-1.7035 -4.35536,-2.06258 0,-0.14397 0.20791,-0.59432 0.46203,-1.00077 0.25412,-0.40645 0.48048,-0.77142 0.50302,-0.81102 0.0225,-0.0396 0.58464,0.23181 1.24908,0.60318 2.74293,1.53305 7.81947,1.97577 9.96045,0.86864 1.33472,-0.69022 2.05566,-1.78315 1.88204,-2.85311 -0.28529,-1.75797 -1.02676,-2.18239 -6.0015,-3.43533 -3.96001,-0.99738 -5.36385,-1.60014 -6.46632,-2.77638 -1.75675,-1.87437 -1.48983,-4.97125 0.57851,-6.71164 2.66176,-2.23972 9.09731,-2.58557 12.86666,-0.69144 l 1.01513,0.51011 -0.45701,0.95835 c -0.32621,0.6841 -0.57778,0.90733 -0.87901,0.77998 -3.11045,-1.31473 -7.37024,-1.61668 -9.45498,-0.67018 -1.7645,0.80112 -2.50241,2.70368 -1.56674,4.03956 0.64308,0.91809 1.71567,1.36447 5.67499,2.36166 5.58742,1.40724 7.20418,2.49708 7.44655,5.01956 0.1762,1.83377 -0.0509,2.57416 -1.16998,3.81275 -1.50328,1.66397 -3.25552,2.27852 -6.79607,2.38353 -2.08446,0.0619 -3.44924,-0.0369 -4.49149,-0.32487 z"
     id="path598" />
  <path
     style="fill:#ffffff;stroke-width:0.272211"
     d="m 783.85203,256.99872 v -10.0718 h 7.8941 7.89411 v 1.22496 1.22494 h -6.39694 -6.39696 v 3.26653 3.26653 h 5.71641 5.71644 v 1.08884 1.08885 h -5.71644 -5.71641 v 3.40263 3.40264 h 6.53306 6.53306 v 1.08884 1.08883 h -8.03023 -8.0302 z"
     id="path600" />
  <path
     style="fill:#ffffff;stroke-width:0.272211"
     d="m 812.70635,256.99872 v -10.0718 l 1.1569,0.009 1.1569,0.009 4.66989,7.1377 c 2.56843,3.92573 4.75601,7.13769 4.86128,7.13769 0.10527,0 2.27609,-3.21548 4.82408,-7.14553 l 4.63269,-7.14553 h 1.19029 1.19032 v 10.0718 10.0718 h -1.36107 -1.36105 v -7.34969 c 0,-4.04233 -0.0919,-7.34675 -0.20416,-7.34317 -0.11222,0.004 -2.02949,2.75972 -4.26046,6.12474 -3.56236,5.37319 -4.14245,6.11791 -4.76368,6.1157 -0.62043,-0.003 -1.2093,-0.76347 -4.79055,-6.19281 l -4.08316,-6.19025 -0.0725,7.41774 -0.0725,7.41774 h -1.35668 -1.35668 z"
     id="path604" />
  <path
     style="fill:#ffffff;stroke-width:0.272211"
     d="m 870.95946,258.22367 v -8.84685 h -3.94706 -3.94706 v -1.22494 -1.22496 h 9.25516 9.25518 v 1.22496 1.22494 h -3.81095 -3.81096 v 8.84685 8.84684 h -1.49715 -1.49716 z"
     id="path606" />
  <path
     style="fill:#ffffff;stroke-width:0.272211"
     d="m 892.4641,256.99872 v -10.0718 h 1.49716 1.49717 v 10.0718 10.07179 h -1.49717 -1.49716 z"
     id="path608" />
</svg>
